<?xml version="1.0" encoding="utf-8"?>
<!-- Generator: Adobe Illustrator 19.0.1, SVG Export Plug-In . SVG Version: 6.00 Build 0)  -->
<svg version="1.1" id="Capa_1" xmlns="http://www.w3.org/2000/svg" xmlns:xlink="http://www.w3.org/1999/xlink" x="0px" y="0px"
	 viewBox="132 -21.4 300.5 79.4" style="enable-background:new 132 -21.4 300.5 79.4;" xml:space="preserve">
<style type="text/css">
	.st0{fill:url(#XMLID_2_);}
	.st1{fill:url(#XMLID_3_);}
	.st2{fill:url(#XMLID_4_);}
	.st3{fill:url(#XMLID_5_);}
	.st4{fill:url(#XMLID_6_);}
	.st5{fill:#999897;}
	.st6{fill:url(#XMLID_7_);}
	.st7{fill:#4E4E4E;}
	.st8{fill:#E85446;}
	.st9{fill:#7E8080;}
</style>
<g>
	<g>
		<g>
			<g id="XMLID_263_">
				<g id="XMLID_272_">
					
						<linearGradient id="XMLID_2_" gradientUnits="userSpaceOnUse" x1="163.424" y1="-2.341691e-02" x2="212.9576" y2="-2.341691e-02">
						<stop  offset="4.926110e-03" style="stop-color:#61BDBF"/>
						<stop  offset="1" style="stop-color:#82CAD1"/>
					</linearGradient>
					<path id="XMLID_273_" class="st0" d="M181-12.6c-9.7,2.1-17,10.5-17.5,20.7c0,0,0,0,0,0c1.8,0.3,3.5,0.9,5.1,1.7
						c4.3,2.2,9.2,3.5,14.4,3.5c13.8,0,25.5-8.8,29.7-21.2h0c0-0.1,0.1-0.2,0.1-0.3c0.1-0.3,0.1-0.7,0.1-1c0-2.2-1.8-4-4-4
						c-0.6,0-1.2,0.1-1.7,0.4l0,0c-4,1.9-8.6,2.9-13.3,2.9c-3.9,0-7.6-0.7-11-2c0,0,0,0,0,0L181-12.6z"/>
				</g>
				<linearGradient id="XMLID_3_" gradientUnits="userSpaceOnUse" x1="145.7547" y1="37.4586" x2="203.0128" y2="37.4586">
					<stop  offset="4.926110e-03" style="stop-color:#A01C43"/>
					<stop  offset="1" style="stop-color:#C1294F"/>
				</linearGradient>
				<path id="XMLID_271_" class="st1" d="M186.1,31.7c-2.6,0-5.1-0.4-7.4-1.3c-1.8,8.5-9.3,14.8-18.3,14.8c-6,0-11.3-2.8-14.7-7.2
					c5.9,7.7,15.2,12.7,25.7,12.7c13.5,0,25-8.2,29.9-19.9c0-0.1,0.1-0.2,0.1-0.2c0.8-2,1.4-4.2,1.6-6.5
					C198.9,28.8,192.9,31.7,186.1,31.7z"/>
				<g id="XMLID_269_">
					<linearGradient id="XMLID_4_" gradientUnits="userSpaceOnUse" x1="138.8865" y1="10.8866" x2="181.0115" y2="10.8866">
						<stop  offset="4.926110e-03" style="stop-color:#0B6058"/>
						<stop  offset="0.2679" style="stop-color:#0F7069"/>
						<stop  offset="0.717" style="stop-color:#168780"/>
						<stop  offset="1" style="stop-color:#188F88"/>
					</linearGradient>
					<path id="XMLID_270_" class="st2" d="M138.9,19.5c0,0.3,0,0.7,0.1,1c0,0,0,0,0,0.1c0,0.4,0.1,0.7,0.1,1.1c0,0.1,0,0.2,0,0.3
						c0,0.3,0.1,0.7,0.1,1c0,0,0,0.1,0,0.1c0.1,0.4,0.1,0.7,0.2,1.1c0,0.1,0,0.1,0,0.2c0.1,0.3,0.1,0.6,0.2,1c0,0,0,0.1,0,0.1
						c0.1,0.4,0.2,0.7,0.3,1.1c0,0.1,0,0.1,0,0.2c0.1,0.3,0.2,0.7,0.3,1c0,0,0,0.1,0,0.1c0.1,0.4,0.2,0.7,0.3,1.1c0,0,0,0.1,0,0.1
						c0.1,0.3,0.2,0.7,0.4,1c0,0,0,0,0,0.1c0.1,0.4,0.3,0.7,0.4,1.1c0,0,0,0,0,0c0.1,0.3,0.3,0.7,0.5,1c0,0,0,0,0,0
						c0.3,0.7,0.7,1.4,1.1,2c0,0,0,0,0,0c0.4,0.7,0.8,1.3,1.2,1.9c0,0,0,0,0,0c-1.7-2.8-2.7-6.1-2.7-9.6c0-10.3,8.3-18.6,18.7-18.6
						c1.1,0,2.2,0.1,3.3,0.3c0.6-10.2,7.9-18.5,17.5-20.7c-3.1-1-6.4-1.5-9.8-1.5c-17.9,0-32.3,14.5-32.3,32.3c0,0.4,0,0.7,0,1.1
						C138.9,19.3,138.9,19.4,138.9,19.5z"/>
				</g>
				<g id="XMLID_267_">
					<linearGradient id="XMLID_5_" gradientUnits="userSpaceOnUse" x1="141.5575" y1="26.4908" x2="178.7125" y2="26.4908">
						<stop  offset="4.926110e-03" style="stop-color:#7A3F7D"/>
						<stop  offset="0.5464" style="stop-color:#874B8E"/>
						<stop  offset="1" style="stop-color:#8E5196"/>
					</linearGradient>
					<path id="XMLID_268_" class="st3" d="M146.1,38.5C146.1,38.5,146.1,38.5,146.1,38.5c3.5,4.2,8.6,6.8,14.4,6.8
						c9,0,16.4-6.3,18.2-14.7c-8.9-3-15.3-11.4-15.3-21.3c0-0.4,0-0.9,0-1.3c0,0,0,0,0,0c-1.1-0.2-2.1-0.3-3.3-0.3
						c-10.3,0-18.7,8.3-18.7,18.6c0,3.5,1,6.8,2.7,9.6c0.5,0.8,1.1,1.5,1.7,2.3C145.9,38.3,146,38.4,146.1,38.5z"/>
				</g>
				<g id="XMLID_265_">
					<linearGradient id="XMLID_6_" gradientUnits="userSpaceOnUse" x1="186.6773" y1="31.7479" x2="186.6773" y2="8.687">
						<stop  offset="4.926070e-03" style="stop-color:#E85446"/>
						<stop  offset="1" style="stop-color:#E85B20"/>
					</linearGradient>
					<path id="XMLID_266_" class="st4" d="M199.2,8.7c-4.7,2.8-10.3,4.5-16.2,4.5c-4.5,0-8.9-1-12.8-2.7l0,0
						c0.4,0.5,0.8,0.8,1.3,1.2c4.6,3.4,7.5,8.8,7.5,15c0,1.3-0.1,2.6-0.4,3.8c0,0,0,0,0,0c2.3,0.8,4.8,1.3,7.4,1.3
						c6.7,0,12.7-3,16.9-7.6l0,0c0.1-0.8,0.1-1.5,0.1-2.3C203.1,17,201.7,12.5,199.2,8.7L199.2,8.7z"/>
				</g>
				<path id="XMLID_264_" class="st5" d="M142.7,29.1c0-10.3,8.3-18.6,18.6-18.6c0.7,0,1.4,0,2.1,0.1c-0.1-1.3,0-2.6,0-2.6
					c-1.1-0.2-2.1-0.3-3.3-0.3c-10.3,0-18.7,8.3-18.7,18.6c0,3,0.7,5.8,2,8.3c0,0,0,0,0,0C143,32.9,142.7,31,142.7,29.1z"/>
			</g>
			<linearGradient id="XMLID_7_" gradientUnits="userSpaceOnUse" x1="183.9839" y1="13.1568" x2="183.9839" y2="-1.5545">
				<stop  offset="0.3506" style="stop-color:#F0841E"/>
				<stop  offset="1" style="stop-color:#F1A600"/>
			</linearGradient>
			<path id="XMLID_262_" class="st6" d="M181.3-1.5c-0.3,0-0.6,0-0.9,0c0,0-0.1,0-0.1,0c0,0-0.1,0-0.1,0c-0.2,0-0.4,0-0.6,0
				c-3.2,0.2-6.1,1.4-8.4,3.3c-0.1,0.1-0.2,0.2-0.4,0.3h0c0,0,0,0,0,0c-1.2,1.1-1.9,2.7-1.9,4.4c0,1.5,0.5,2.8,1.4,3.9
				c3.9,1.7,8.2,2.7,12.8,2.7c5.9,0,11.4-1.6,16.2-4.5C195.2,2.8,188.7-1.2,181.3-1.5z"/>
		</g>
		<g>
			<g id="XMLID_235_">
				<g id="XMLID_236_">
					<g id="XMLID_245_">
						<path id="XMLID_260_" class="st7" d="M251.7,6.8v9.4h-12.8c-5.6,0-7.7-2.7-7.7-8.1c0-5.3,2.1-8.1,7.7-8.1h12.6v2.5h-12.6
							c-4.1,0-5,1.9-5,5.5c0,3.7,0.9,5.6,5,5.6h10.2V6.8H251.7z"/>
						<path id="XMLID_258_" class="st7" d="M258,0.1v9.6c0,3,1.3,4,5.1,4h10.7v2.6h-10.7c-5.3,0-7.7-1.9-7.7-6.5V0.1H258z"/>
						<path id="XMLID_255_" class="st7" d="M298.3,8.1c0,6.5-3.8,8.3-11.2,8.3s-11.2-1.9-11.2-8.3c0-6.4,3.8-8.3,11.2-8.3
							S298.3,1.6,298.3,8.1z M295.6,8.1c0-5-3-5.8-8.6-5.8c-5.6,0-8.6,0.8-8.6,5.8c0,5.1,3,5.8,8.6,5.8
							C292.7,13.9,295.6,13.1,295.6,8.1z"/>
						<path id="XMLID_251_" class="st7" d="M318.9,8c2.3,0.6,3.3,2.1,3.3,3.9c0,2.4-1.7,4.3-6,4.3h-14.3V0.1h14
							c5.1,0,5.8,2.6,5.8,4.2C321.8,6.3,320.7,7.5,318.9,8z M316.3,6.9c1.9,0,3-0.8,3-2.2c0-1.4-1-2.2-3-2.2h-11.8v4.4H316.3z
							 M304.5,9.1V14h12.1c2.6,0,3.1-1.3,3.1-2.3c0-1.2-0.8-2.5-3.1-2.5H304.5z"/>
						<path id="XMLID_248_" class="st7" d="M346.4,16.3h-2.8L340,9.1h-9.9l-3.6,7.2h-2.8l6.5-13c1-2.1,2.3-3.4,4.8-3.4
							c2.5,0,3.8,1.3,4.8,3.4L346.4,16.3z M337.4,3.8c-0.5-1-1.1-1.6-2.3-1.6c-1.1,0-1.8,0.6-2.2,1.6l-1.5,3h7.5L337.4,3.8z"/>
						<path id="XMLID_246_" class="st7" d="M350.5,0.1v9.6c0,3,1.3,4,5.1,4h10.7v2.6h-10.7c-5.3,0-7.7-1.9-7.7-6.5V0.1H350.5z"/>
					</g>
					<g id="XMLID_237_">
						<path id="XMLID_242_" class="st8" d="M420.4,16.3h-2.8L414,9.1h-9.9l-3.6,7.2h-2.8l6.5-13c1-2.1,2.3-3.4,4.8-3.4
							c2.5,0,3.8,1.3,4.8,3.4L420.4,16.3z M411.3,3.8c-0.5-1-1.1-1.6-2.3-1.6c-1.1,0-1.7,0.6-2.2,1.6l-1.5,3h7.5L411.3,3.8z"/>
						<path id="XMLID_240_" class="st8" d="M390.3,13.9c2.3,0,3.3-0.8,3.3-2.1c0-1.4-0.7-2.5-3.3-2.7h-8.4c-3.7,0-5.6-1.8-5.6-4.6
							c0-3.2,2.6-4.4,5.8-4.4h13.1v2.3h-13.4c-1.9,0-2.9,0.6-2.9,2c0,1.3,0.1,2.2,2.9,2.4h8.4c4.3,0,6,1.8,6,4.9
							c0,2.7-1.7,4.5-6,4.5h-14.2v-2.3H390.3z"/>
						<path id="XMLID_238_" class="st8" d="M425.6,0.1v16.2H423V0.1H425.6z"/>
					</g>
				</g>
			</g>
			<g>
				<path class="st9" d="M261.1,29.6h0.9l2.1,3.1l2.1-3.1h0.9l-2.7,3.9v3.3h-0.8v-3.3L261.1,29.6z"/>
				<path class="st9" d="M267.7,33.2c0-2.4,1.1-3.7,3.3-3.7c2.2,0,3.3,1.2,3.3,3.7c0,2.4-1.1,3.7-3.3,3.7
					C268.8,36.8,267.7,35.6,267.7,33.2z M269.1,30.9c-0.4,0.5-0.6,1.2-0.6,2.2c0,1,0.2,1.8,0.6,2.2c0.4,0.5,1,0.7,1.9,0.7
					c0.9,0,1.5-0.2,1.9-0.7c0.4-0.5,0.6-1.2,0.6-2.2c0-1-0.2-1.8-0.6-2.2c-0.4-0.5-1-0.7-1.9-0.7C270.1,30.2,269.5,30.5,269.1,30.9z
					"/>
				<path class="st9" d="M275.8,33.8v-4.2h0.8v4.2c0,1.5,0.7,2.3,2.1,2.3s2.1-0.8,2.1-2.3v-4.2h0.8v4.2c0,1-0.3,1.7-0.8,2.2
					c-0.5,0.5-1.2,0.8-2.1,0.8c-0.9,0-1.6-0.3-2.1-0.8S275.8,34.8,275.8,33.8z"/>
				<path class="st9" d="M283.4,36.7v-7.1h2.6c0.8,0,1.4,0.2,1.8,0.5c0.4,0.4,0.6,0.9,0.6,1.5c0,0.3,0,0.6-0.1,0.8
					c-0.1,0.2-0.2,0.4-0.3,0.6c-0.1,0.1-0.3,0.3-0.4,0.4c-0.2,0.1-0.3,0.2-0.4,0.2s-0.2,0.1-0.3,0.1l2,3h-0.9l-1.9-2.9h-1.8v2.9
					H283.4z M284.2,33.1h1.8c0.4,0,0.7,0,0.9-0.1c0.2-0.1,0.4-0.2,0.5-0.3c0.1-0.1,0.2-0.3,0.2-0.4c0-0.1,0.1-0.3,0.1-0.5
					c0-0.2,0-0.4-0.1-0.5c0-0.1-0.1-0.3-0.2-0.4c-0.1-0.1-0.3-0.3-0.5-0.3c-0.2-0.1-0.5-0.1-0.9-0.1h-1.8V33.1z"/>
				<path class="st9" d="M293.4,31.5c0-0.5,0.2-1,0.6-1.4c0.4-0.4,1-0.6,1.9-0.6c0.6,0,1.2,0.1,1.8,0.4v0.8
					c-0.5-0.3-1.1-0.4-1.7-0.4c-0.6,0-1,0.1-1.3,0.3c-0.3,0.2-0.5,0.5-0.5,0.9c0,0.2,0.1,0.4,0.3,0.6c0.2,0.2,0.4,0.3,0.7,0.4
					c0.3,0.1,0.6,0.2,0.9,0.3c0.3,0.1,0.7,0.3,0.9,0.4c0.3,0.1,0.5,0.4,0.7,0.7c0.2,0.3,0.3,0.7,0.3,1.1c0,0.6-0.2,1.1-0.7,1.4
					c-0.4,0.3-1.1,0.5-1.9,0.5c-0.8,0-1.5-0.2-2.1-0.5v-0.8c0.6,0.4,1.2,0.6,2.1,0.6c1.2,0,1.8-0.4,1.8-1.1c0-0.3-0.1-0.6-0.3-0.8
					c-0.2-0.2-0.4-0.4-0.7-0.5l-0.9-0.3c-0.3-0.1-0.7-0.2-0.9-0.3c-0.3-0.1-0.5-0.3-0.7-0.6C293.4,32.2,293.4,31.9,293.4,31.5z"/>
				<path class="st9" d="M298.8,30.4v-0.7h5.8v0.7h-2.5v6.4h-0.8v-6.4H298.8z"/>
				<path class="st9" d="M305.7,36.7v-7.1h2.6c0.8,0,1.4,0.2,1.8,0.5s0.6,0.9,0.6,1.5c0,0.3,0,0.6-0.1,0.8c-0.1,0.2-0.2,0.4-0.3,0.6
					c-0.1,0.1-0.3,0.3-0.4,0.4c-0.2,0.1-0.3,0.2-0.4,0.2s-0.2,0.1-0.3,0.1l2,3h-0.9l-1.9-2.9h-1.8v2.9H305.7z M306.5,33.1h1.8
					c0.4,0,0.7,0,0.9-0.1c0.2-0.1,0.4-0.2,0.5-0.3c0.1-0.1,0.2-0.3,0.2-0.4c0-0.1,0.1-0.3,0.1-0.5c0-0.2,0-0.4-0.1-0.5
					c0-0.1-0.1-0.3-0.2-0.4c-0.1-0.1-0.3-0.3-0.5-0.3c-0.2-0.1-0.5-0.1-0.9-0.1h-1.8V33.1z"/>
				<path class="st9" d="M312,36.7l2.8-7.1h0.8l2.8,7.1h-0.8l-0.9-2.2h-3.1l-0.9,2.2H312z M314,33.8h2.5l-1.2-3.3L314,33.8z"/>
				<path class="st9" d="M318.1,30.4v-0.7h5.8v0.7h-2.5v6.4h-0.8v-6.4H318.1z"/>
				<path class="st9" d="M325,36.7v-7.1h4.5v0.7h-3.7v2.5h3.3v0.7h-3.3V36h3.7v0.7H325z"/>
				<path class="st9" d="M330.8,33.2c0-2.4,1.1-3.7,3.3-3.7c0.8,0,1.5,0.1,2.2,0.4v0.7c-0.7-0.3-1.4-0.5-2.2-0.5
					c-0.9,0-1.6,0.2-2,0.7c-0.4,0.5-0.6,1.2-0.6,2.2c0,1,0.2,1.8,0.6,2.2c0.4,0.5,1.1,0.7,2,0.7c0.6,0,1.1-0.1,1.6-0.3v-2.2h-1.7
					v-0.7h2.5v3.4c-0.8,0.4-1.6,0.5-2.5,0.5C331.9,36.8,330.8,35.6,330.8,33.2z"/>
				<path class="st9" d="M338.3,36.7v-7.1h0.8v7.1H338.3z"/>
				<path class="st9" d="M340.6,33.2c0-2.4,1.1-3.7,3.3-3.7c0.8,0,1.5,0.1,2.2,0.4v0.7c-0.7-0.3-1.4-0.4-2.1-0.4
					c-0.9,0-1.6,0.2-2,0.7c-0.4,0.5-0.6,1.2-0.6,2.2c0,1,0.2,1.8,0.6,2.2c0.4,0.5,1.1,0.7,2,0.7c0.7,0,1.4-0.1,2.1-0.4v0.7
					c-0.7,0.3-1.4,0.4-2.1,0.4c0,0,0,0,0,0C341.7,36.8,340.6,35.6,340.6,33.2z"/>
				<path class="st9" d="M351.1,36.7v-7.1h2.5c0.8,0,1.4,0.2,1.8,0.6c0.4,0.4,0.6,0.9,0.6,1.6c0,0.7-0.2,1.3-0.6,1.6
					c-0.4,0.4-1,0.6-1.8,0.6h-1.8v2.7H351.1z M351.9,33.3h1.7c0.4,0,0.7,0,0.9-0.1c0.3-0.1,0.4-0.2,0.6-0.4s0.2-0.3,0.2-0.5
					c0-0.1,0.1-0.3,0.1-0.5c0-0.2,0-0.4-0.1-0.5c0-0.2-0.1-0.3-0.2-0.5c-0.1-0.2-0.3-0.3-0.6-0.4c-0.3-0.1-0.6-0.1-0.9-0.1h-1.7
					V33.3z"/>
				<path class="st9" d="M356.4,36.7l2.8-7.1h0.8l2.8,7.1H362l-0.9-2.2h-3.1l-0.9,2.2H356.4z M358.3,33.8h2.5l-1.2-3.3L358.3,33.8z"
					/>
				<path class="st9" d="M363.9,36.7v-7.1h2.6c0.8,0,1.4,0.2,1.8,0.5s0.6,0.9,0.6,1.5c0,0.3,0,0.6-0.1,0.8c-0.1,0.2-0.2,0.4-0.3,0.6
					c-0.1,0.1-0.3,0.3-0.4,0.4c-0.2,0.1-0.3,0.2-0.4,0.2c-0.1,0-0.2,0.1-0.3,0.1l2,3h-0.9l-1.9-2.9h-1.8v2.9H363.9z M364.7,33.1h1.8
					c0.4,0,0.7,0,0.9-0.1c0.2-0.1,0.4-0.2,0.5-0.3c0.1-0.1,0.2-0.3,0.2-0.4c0-0.1,0.1-0.3,0.1-0.5c0-0.2,0-0.4-0.1-0.5
					c0-0.1-0.1-0.3-0.2-0.4c-0.1-0.1-0.3-0.3-0.5-0.3c-0.2-0.1-0.5-0.1-0.9-0.1h-1.8V33.1z"/>
				<path class="st9" d="M369.8,30.4v-0.7h5.8v0.7h-2.5v6.4h-0.8v-6.4H369.8z"/>
				<path class="st9" d="M376.7,36.7v-7.1h0.9l4.3,6v-6h0.8v7.1h-0.9l-4.3-6v6H376.7z"/>
				<path class="st9" d="M384.4,36.7v-7.1h4.5v0.7h-3.7v2.5h3.3v0.7h-3.3V36h3.7v0.7H384.4z"/>
				<path class="st9" d="M390.4,36.7v-7.1h2.6c0.8,0,1.4,0.2,1.8,0.5c0.4,0.4,0.6,0.9,0.6,1.5c0,0.3,0,0.6-0.1,0.8
					c-0.1,0.2-0.2,0.4-0.3,0.6c-0.1,0.1-0.3,0.3-0.4,0.4c-0.2,0.1-0.3,0.2-0.4,0.2s-0.2,0.1-0.3,0.1l2,3h-0.9l-1.9-2.9h-1.8v2.9
					H390.4z M391.1,33.1h1.8c0.4,0,0.7,0,0.9-0.1c0.2-0.1,0.4-0.2,0.5-0.3c0.1-0.1,0.2-0.3,0.2-0.4c0-0.1,0.1-0.3,0.1-0.5
					c0-0.2,0-0.4-0.1-0.5c0-0.1-0.1-0.3-0.2-0.4c-0.1-0.1-0.3-0.3-0.5-0.3c-0.2-0.1-0.5-0.1-0.9-0.1h-1.8V33.1z"/>
			</g>
		</g>
	</g>
</g>
</svg>
