<?xml version="1.0" encoding="utf-8"?>
<!-- Generator: Adobe Illustrator 19.0.1, SVG Export Plug-In . SVG Version: 6.00 Build 0)  -->
<svg version="1.1" id="Capa_1" xmlns="http://www.w3.org/2000/svg" xmlns:xlink="http://www.w3.org/1999/xlink" x="0px" y="0px"
	 viewBox="4 -4 44 44" style="enable-background:new 4 -4 44 44;" xml:space="preserve">
<style type="text/css">
	.st0{opacity:0.45;}
	.st1{fill:url(#SVGID_1_);}
	.st2{fill:url(#SVGID_2_);}
	.st3{fill:url(#SVGID_3_);}
	.st4{fill:url(#SVGID_4_);}
</style>
<g>
	<g class="st0">
		<path d="M21.5,22.4L21.5,22.4L21.5,22.4c-0.2,0.5-0.3,0.9-0.4,1.4C21.3,23.3,21.4,22.9,21.5,22.4L21.5,22.4z"/>
		<path d="M30.8,15.8c-1,0-2.1,0.2-3.1,0.5h-0.1h-0.1c-0.9-0.2-2.3-0.7-3.5-1.3l-0.3-0.1l0.1-0.3c0.4-0.8,0.6-1.7,0.6-2.6
			c0-3.6-3-6.6-6.6-6.6c-1.9,0-3.7,0.8-4.9,2.2c1.1-1.2,2.8-2,4.6-2c3.4,0,6.2,2.8,6.2,6.2c0,0.9-0.2,1.7-0.5,2.5l-0.3,0.6l0.6,0.3
			c1.3,0.6,2.7,1,3.6,1.2h0.4l0,0c1-0.3,2-0.5,3-0.5c5.2,0,9.5,4.3,9.5,9.5s-4.3,9.5-9.5,9.5S21,30.6,21,25.4c0-0.6,0.1-1.1,0.2-1.7
			c-0.1,0.6-0.2,1.2-0.2,1.9c0,5.4,4.4,9.9,9.9,9.9c5.4,0,9.9-4.4,9.9-9.9C40.7,20.2,36.3,15.8,30.8,15.8z"/>
		<path d="M21.4,21.8L21.4,21.8v-0.2c0-1.7-0.7-3.1-2-4.1l-0.2-0.3l-0.3,0.1c-0.5,0.1-1,0.2-1.4,0.2c-3.4,0-6.2-2.8-6.2-6.2
			c0-0.4,0-0.7,0.1-1.1c-0.2,0.4-0.2,0.8-0.2,1.2c0,3.6,3,6.6,6.6,6.6c0.5,0,1-0.1,1.5-0.2h0.2l0.1,0.1
			C20.8,18.8,21.4,20.1,21.4,21.8L21.4,21.8z"/>
		<path d="M35,2.7c-2.1-0.7-4.4,0.4-5.2,2.5c-0.7,2.1,0.4,4.4,2.5,5.2c0.1,0,0.1,0,0.2,0.1c-1.8-0.7-2.7-2.7-2.1-4.6
			C31.1,4,33.1,3,35.1,3.6c1.5,0.5,2.7,2,2.6,3.5C38,5.2,36.9,3.3,35,2.7z"/>
	</g>
	<g>
		<g>
			
				<radialGradient id="SVGID_1_" cx="327.5538" cy="26.5127" r="410.573" gradientTransform="matrix(1 0 0 -1 0 36)" gradientUnits="userSpaceOnUse">
				<stop  offset="6.606787e-02" style="stop-color:#FFA840"/>
				<stop  offset="8.681715e-02" style="stop-color:#FFA443"/>
				<stop  offset="0.2965" style="stop-color:#FF815D"/>
				<stop  offset="0.468" style="stop-color:#FF6B6D"/>
				<stop  offset="0.5787" style="stop-color:#FF6373"/>
				<stop  offset="1" style="stop-color:#9300BF"/>
			</radialGradient>
			<path class="st1" d="M21.5,20.4L21.5,20.4L21.5,20.4c-0.2,0.5-0.3,0.9-0.4,1.4C21.3,21.3,21.4,20.9,21.5,20.4L21.5,20.4z"/>
			
				<radialGradient id="SVGID_2_" cx="327.5538" cy="26.5127" r="410.573" gradientTransform="matrix(1 0 0 -1 0 36)" gradientUnits="userSpaceOnUse">
				<stop  offset="6.606787e-02" style="stop-color:#FFA840"/>
				<stop  offset="8.681715e-02" style="stop-color:#FFA443"/>
				<stop  offset="0.2965" style="stop-color:#FF815D"/>
				<stop  offset="0.468" style="stop-color:#FF6B6D"/>
				<stop  offset="0.5787" style="stop-color:#FF6373"/>
				<stop  offset="1" style="stop-color:#9300BF"/>
			</radialGradient>
			<path class="st2" d="M30.8,13.8c-1,0-2.1,0.2-3.1,0.5h-0.1h-0.1c-0.9-0.2-2.3-0.7-3.5-1.3l-0.3-0.1l0.1-0.3
				c0.4-0.8,0.6-1.7,0.6-2.6c0-3.6-3-6.6-6.6-6.6c-1.9,0-3.7,0.8-4.9,2.2c1.1-1.2,2.8-2,4.6-2c3.4,0,6.2,2.8,6.2,6.2
				c0,0.9-0.2,1.7-0.5,2.5l-0.3,0.6l0.6,0.3c1.3,0.6,2.7,1,3.6,1.2h0.4l0,0c1-0.3,2-0.5,3-0.5c5.2,0,9.5,4.3,9.5,9.5
				s-4.3,9.5-9.5,9.5S21,28.6,21,23.4c0-0.6,0.1-1.1,0.2-1.7c-0.1,0.6-0.2,1.2-0.2,1.9c0,5.4,4.4,9.9,9.9,9.9c5.4,0,9.9-4.4,9.9-9.9
				C40.7,18.2,36.3,13.8,30.8,13.8z"/>
			
				<radialGradient id="SVGID_3_" cx="327.5538" cy="26.5127" r="410.573" gradientTransform="matrix(1 0 0 -1 0 36)" gradientUnits="userSpaceOnUse">
				<stop  offset="6.606787e-02" style="stop-color:#FFA840"/>
				<stop  offset="8.681715e-02" style="stop-color:#FFA443"/>
				<stop  offset="0.2965" style="stop-color:#FF815D"/>
				<stop  offset="0.468" style="stop-color:#FF6B6D"/>
				<stop  offset="0.5787" style="stop-color:#FF6373"/>
				<stop  offset="1" style="stop-color:#9300BF"/>
			</radialGradient>
			<path class="st3" d="M21.4,19.8L21.4,19.8v-0.2c0-1.7-0.7-3.1-2-4.1l-0.2-0.3l-0.3,0.1c-0.5,0.1-1,0.2-1.4,0.2
				c-3.4,0-6.2-2.8-6.2-6.2c0-0.4,0-0.7,0.1-1.1c-0.2,0.4-0.2,0.8-0.2,1.2c0,3.6,3,6.6,6.6,6.6c0.5,0,1-0.1,1.5-0.2h0.2l0.1,0.1
				C20.8,16.8,21.4,18.1,21.4,19.8L21.4,19.8z"/>
			
				<radialGradient id="SVGID_4_" cx="327.5538" cy="26.5127" r="410.573" gradientTransform="matrix(1 0 0 -1 0 36)" gradientUnits="userSpaceOnUse">
				<stop  offset="6.606787e-02" style="stop-color:#FFA840"/>
				<stop  offset="8.681715e-02" style="stop-color:#FFA443"/>
				<stop  offset="0.2965" style="stop-color:#FF815D"/>
				<stop  offset="0.468" style="stop-color:#FF6B6D"/>
				<stop  offset="0.5787" style="stop-color:#FF6373"/>
				<stop  offset="1" style="stop-color:#9300BF"/>
			</radialGradient>
			<path class="st4" d="M35,0.7c-2.1-0.7-4.4,0.4-5.2,2.5c-0.7,2.1,0.4,4.4,2.5,5.2c0.1,0,0.1,0,0.2,0.1c-1.8-0.7-2.7-2.7-2.1-4.6
				C31.1,2,33.1,1,35.1,1.6c1.5,0.5,2.7,2,2.6,3.5C38,3.2,36.9,1.3,35,0.7z"/>
		</g>
	</g>
</g>
</svg>
