<?xml version="1.0" encoding="utf-8"?>
<!-- Generator: Adobe Illustrator 19.0.1, SVG Export Plug-In . SVG Version: 6.00 Build 0)  -->
<svg version="1.1" id="Capa_1" xmlns="http://www.w3.org/2000/svg" xmlns:xlink="http://www.w3.org/1999/xlink" x="0px" y="0px"
	 viewBox="4 -4 44 44" style="enable-background:new 4 -4 44 44;" xml:space="preserve">
<style type="text/css">
	.st0{opacity:0.45;}
	.st1{fill:url(#SVGID_1_);}
	.st2{fill:url(#SVGID_2_);}
	.st3{fill:url(#SVGID_3_);}
	.st4{fill:url(#SVGID_4_);}
</style>
<g>
	<g class="st0">
		<path d="M39.4,10.9c-1.2,0.5-2.3,1.5-2.8,2.8l0,0l0,0c-0.4,0.3-0.9,0.7-1.4,0.9c0.6-0.2,1.1-0.6,1.5-0.9
			C37.1,12.5,38.2,11.5,39.4,10.9z"/>
		<path d="M29.7,10.9c1.7,0.9,3,2.3,3.8,4.1l0.1,0.1h0.1c0.5,0,0.9-0.2,1.4-0.4c-0.3,0.1-0.6,0.2-0.9,0.2c-0.8-1.7-2.2-3.2-3.9-4.1
			c-1.8-1-3.8-1.3-5.8-0.9c-0.7,0.1-1.3,0.3-1.9,0.6c0.5-0.2,1-0.4,1.6-0.5C26.1,9.7,28,10,29.7,10.9z"/>
		<path d="M9.9,17.5c1.4,0,2.7,0.6,3.7,1.6l0,0h0.1c0.7,0.2,1.6,0.1,2.6-0.3c-0.8,0.3-1.4,0.4-2,0.2c-1.4-1.5-3.5-2.1-5.5-1.5
			c-0.2,0.1-0.4,0.2-0.7,0.2c0.1,0,0.2-0.1,0.4-0.1C9,17.6,9.4,17.5,9.9,17.5z"/>
		<path d="M43.4,10.8c-1.4-0.5-2.8-0.4-4,0.2c1.1-0.5,2.3-0.5,3.5-0.1c2.6,0.9,4,3.8,3.1,6.4c-0.4,1.3-1.4,2.3-2.6,2.9
			c-1.2,0.6-2.6,0.7-3.8,0.2c-0.8-0.3-1.6-0.8-2.1-1.5l0,0h-0.1c-0.8-0.3-1.8-0.1-3,0.4h-0.1v0.1c-0.2,1.8-1,3.5-2.2,4.8
			c-1.3,1.4-2.9,2.3-4.7,2.6c-1.7,0.3-3.4,0.1-5-0.6c-1.5-0.7-2.8-1.8-3.7-3.2v-0.1h-0.1c-1.5-0.3-2.8,0.6-3.7,1.3l0,0l0,0
			c-0.5,1.5-1.8,2.7-3.3,3.1c-1.3,0.4-2.6,0.2-3.8-0.4s-2-1.7-2.4-3c-0.4-0.4-0.5-0.8-0.5-1.3c0,0.6,0.1,1.1,0.2,1.7
			c0.7,2.3,2.9,3.9,5.2,3.9c0.5,0,1-0.1,1.6-0.2c1.6-0.5,2.9-1.7,3.5-3.3c0.8-0.7,1.9-1.4,3.2-1.2c0.9,1.5,2.3,2.6,3.9,3.3
			c1.7,0.7,3.5,1,5.3,0.6c1.9-0.4,3.6-1.3,4.9-2.7c1.2-1.3,2.1-3.1,2.3-4.9c1-0.5,1.9-0.6,2.6-0.4c0.6,0.7,1.4,1.2,2.3,1.5
			c1.4,0.5,2.8,0.4,4.1-0.2s2.3-1.7,2.8-3.1C47.7,14.8,46.2,11.8,43.4,10.8z"/>
	</g>
	<g>
		<g>
			<g>
				
					<radialGradient id="SVGID_1_" cx="175.6576" cy="25.7354" r="280.007" gradientTransform="matrix(1 0 0 -1 0 36)" gradientUnits="userSpaceOnUse">
					<stop  offset="6.606787e-02" style="stop-color:#FFA840"/>
					<stop  offset="8.681715e-02" style="stop-color:#FFA443"/>
					<stop  offset="0.2965" style="stop-color:#FF815D"/>
					<stop  offset="0.468" style="stop-color:#FF6B6D"/>
					<stop  offset="0.5787" style="stop-color:#FF6373"/>
					<stop  offset="1" style="stop-color:#9300BF"/>
				</radialGradient>
				<path class="st1" d="M39.4,8.9c-1.2,0.5-2.3,1.5-2.8,2.8l0,0l0,0c-0.4,0.3-0.9,0.7-1.4,0.9c0.6-0.2,1.1-0.6,1.5-0.9
					C37.1,10.5,38.2,9.5,39.4,8.9z"/>
				
					<radialGradient id="SVGID_2_" cx="175.6576" cy="25.7354" r="280.007" gradientTransform="matrix(1 0 0 -1 0 36)" gradientUnits="userSpaceOnUse">
					<stop  offset="6.606787e-02" style="stop-color:#FFA840"/>
					<stop  offset="8.681715e-02" style="stop-color:#FFA443"/>
					<stop  offset="0.2965" style="stop-color:#FF815D"/>
					<stop  offset="0.468" style="stop-color:#FF6B6D"/>
					<stop  offset="0.5787" style="stop-color:#FF6373"/>
					<stop  offset="1" style="stop-color:#9300BF"/>
				</radialGradient>
				<path class="st2" d="M29.7,8.9c1.7,0.9,3,2.3,3.8,4.1l0.1,0.1h0.1c0.5,0,0.9-0.2,1.4-0.4c-0.3,0.1-0.6,0.2-0.9,0.2
					c-0.8-1.7-2.2-3.2-3.9-4.1c-1.8-1-3.8-1.3-5.8-0.9c-0.7,0.1-1.3,0.3-1.9,0.6c0.5-0.2,1-0.4,1.6-0.5C26.1,7.7,28,8,29.7,8.9z"/>
				
					<radialGradient id="SVGID_3_" cx="175.6576" cy="25.7354" r="280.007" gradientTransform="matrix(1 0 0 -1 0 36)" gradientUnits="userSpaceOnUse">
					<stop  offset="6.606787e-02" style="stop-color:#FFA840"/>
					<stop  offset="8.681715e-02" style="stop-color:#FFA443"/>
					<stop  offset="0.2965" style="stop-color:#FF815D"/>
					<stop  offset="0.468" style="stop-color:#FF6B6D"/>
					<stop  offset="0.5787" style="stop-color:#FF6373"/>
					<stop  offset="1" style="stop-color:#9300BF"/>
				</radialGradient>
				<path class="st3" d="M9.9,15.5c1.4,0,2.7,0.6,3.7,1.6l0,0h0.1c0.7,0.2,1.6,0.1,2.6-0.3c-0.8,0.3-1.4,0.4-2,0.2
					c-1.4-1.5-3.5-2.1-5.5-1.5c-0.2,0.1-0.4,0.2-0.7,0.2c0.1,0,0.2-0.1,0.4-0.1C9,15.6,9.4,15.5,9.9,15.5z"/>
				
					<radialGradient id="SVGID_4_" cx="175.6576" cy="25.7354" r="280.007" gradientTransform="matrix(1 0 0 -1 0 36)" gradientUnits="userSpaceOnUse">
					<stop  offset="6.606787e-02" style="stop-color:#FFA840"/>
					<stop  offset="8.681715e-02" style="stop-color:#FFA443"/>
					<stop  offset="0.2965" style="stop-color:#FF815D"/>
					<stop  offset="0.468" style="stop-color:#FF6B6D"/>
					<stop  offset="0.5787" style="stop-color:#FF6373"/>
					<stop  offset="1" style="stop-color:#9300BF"/>
				</radialGradient>
				<path class="st4" d="M43.4,8.8c-1.4-0.5-2.8-0.4-4,0.2c1.1-0.5,2.3-0.5,3.5-0.1c2.6,0.9,4,3.8,3.1,6.4c-0.4,1.3-1.4,2.3-2.6,2.9
					c-1.2,0.6-2.6,0.7-3.8,0.2c-0.8-0.3-1.6-0.8-2.1-1.5l0,0h-0.1c-0.8-0.3-1.8-0.1-3,0.4h-0.1v0.1c-0.2,1.8-1,3.5-2.2,4.8
					c-1.3,1.4-2.9,2.3-4.7,2.6c-1.7,0.3-3.4,0.1-5-0.6c-1.5-0.7-2.8-1.8-3.7-3.2v-0.1h-0.1c-1.5-0.3-2.8,0.6-3.7,1.3l0,0l0,0
					c-0.5,1.5-1.8,2.7-3.3,3.1c-1.3,0.4-2.6,0.2-3.8-0.4s-2-1.7-2.4-3c-0.4-0.4-0.5-0.8-0.5-1.3c0,0.6,0.1,1.1,0.2,1.7
					c0.7,2.3,2.9,3.9,5.2,3.9c0.5,0,1-0.1,1.6-0.2c1.6-0.5,2.9-1.7,3.5-3.3c0.8-0.7,1.9-1.4,3.2-1.2c0.9,1.5,2.3,2.6,3.9,3.3
					c1.7,0.7,3.5,1,5.3,0.6c1.9-0.4,3.6-1.3,4.9-2.7c1.2-1.3,2.1-3.1,2.3-4.9c1-0.5,1.9-0.6,2.6-0.4c0.6,0.7,1.4,1.2,2.3,1.5
					c1.4,0.5,2.8,0.4,4.1-0.2c1.3-0.6,2.3-1.7,2.8-3.1C47.7,12.8,46.2,9.8,43.4,8.8z"/>
			</g>
		</g>
	</g>
</g>
</svg>
