<?xml version="1.0" encoding="utf-8"?>
<!-- Generator: Adobe Illustrator 19.0.1, SVG Export Plug-In . SVG Version: 6.00 Build 0)  -->
<svg version="1.1" id="Capa_1" xmlns="http://www.w3.org/2000/svg" xmlns:xlink="http://www.w3.org/1999/xlink" x="0px" y="0px"
	 viewBox="4 -4 44 44" style="enable-background:new 4 -4 44 44;" xml:space="preserve">
<style type="text/css">
	.st0{opacity:0.45;}
	.st1{fill:url(#SVGID_1_);}
	.st2{fill:url(#SVGID_2_);}
	.st3{fill:url(#SVGID_3_);}
	.st4{fill:url(#SVGID_4_);}
	.st5{fill:url(#SVGID_5_);}
	.st6{fill:url(#SVGID_6_);}
	.st7{fill:url(#SVGID_7_);}
	.st8{fill:url(#SVGID_8_);}
	.st9{fill:url(#SVGID_9_);}
	.st10{fill:url(#SVGID_10_);}
	.st11{fill:url(#SVGID_11_);}
	.st12{fill:url(#SVGID_12_);}
</style>
<g>
	<g class="st0">
		<path d="M11.8,9.6C11.8,9.7,11.8,9.7,11.8,9.6c0-0.2,0-0.5,0.1-0.8C11.8,9.1,11.8,9.4,11.8,9.6z"/>
		<path d="M9.9,27.7c-0.1-0.3-0.2-0.6-0.2-0.9C9.7,27.1,9.8,27.4,9.9,27.7z"/>
		<path d="M30.8,14.1L30.8,14.1c-1.4-1-2.9-1.5-4.5-1.5c-0.8,0-1.5,0.1-2.3,0.4h-0.1h-0.1c-0.5-0.2-1.5-0.5-2.4-1l-0.2-0.1l0.1-0.2
			c0.3-0.6,0.4-1.3,0.4-2c0-2.7-2.2-5.2-4.9-4.9c-0.4,0-0.7,0.1-1,0.2c0.2,0,0.4,0,0.7,0c2.5,0,4.6,2.1,4.6,4.6
			c0,0.6-0.1,1.3-0.4,1.9l-0.2,0.4l0.4,0.2c0.9,0.5,2,0.8,2.6,0.9h0.1h0.1c0.7-0.2,1.5-0.4,2.2-0.4c1.5,0,3,0.5,4.2,1.4l0.2,0.1
			l0.2-0.1c0.2,0,0.4-0.1,0.6-0.2c-0.1,0-0.2,0.1-0.3,0.1L30.8,14.1z"/>
		<path d="M28.8,27.4c-0.3-0.2-0.7-0.5-1.1-0.7l-0.1-0.1h-0.2c-0.5,0.1-0.9,0.1-1.4,0.1c-1.7,0-3.3-0.6-4.5-1.7h-0.2l0,0
			c-0.8-0.9-1.3-1.5-1.3-1.7c0,0,0-0.1-0.1-0.1c0,0-0.1,0-0.1,0.1c0,0.4,0.3,1.1,0.9,1.8H21c-0.7,0-1.4,0.3-2,0.8L18.8,26v0.2
			c0,0.4-0.1,0.7-0.1,1.1c-0.3,1.2-1.1,2.2-2.1,2.8c-1.1,0.6-2.3,1.1-3.4,0.8c0.1,0,0.2,0.1,0.3,0.1c1.3,0.3,2.6,0.1,3.7-0.5
			c1.1-0.7,1.9-1.7,2.3-3c0.1-0.4,0.1-0.7,0.2-1.1v-0.1l0.1-0.1c0.6-0.5,1.2-0.7,1.9-0.7h0.1l0.1,0.1c1.3,1.1,3,1.7,4.7,1.7
			c0.5,0,1,0,1.5-0.1h0.1h0.1c0.4,0.2,0.7,0.4,1,0.7l0.1,0.1l0.1-0.1L28.8,27.4z"/>
		<path d="M28.4,29.9c0.1-0.7,0.4-1.3,0.7-1.9l0.1-0.2l-0.1-0.1L28.9,28c-0.4,0.5-0.6,1.1-0.7,1.8c-0.2,1.2,0,2.4,0.7,3.4
			C28.4,32.2,28.2,31.1,28.4,29.9z"/>
		<path d="M10,27.8c0.5,1.4,1.7,2.6,3.2,3l0,0C11.6,30.4,10.5,29.2,10,27.8z"/>
		<path d="M38.2,7.7c-0.9-0.1-1.8,0-2.5,0.3c0.7-0.2,1.4-0.3,2.1-0.2c1.2,0.1,2.3,0.8,3,1.8s1.1,2.2,0.9,3.4
			c-0.2,1.2-0.8,2.3-1.8,3.1c-1,0.7-2.2,1.1-3.4,0.9c-0.6-0.1-1.2-0.3-1.8-0.6L34.3,16L34,16.4c-0.4,0.6-0.7,1.2-1.1,2l0,0.2v0.1
			c0,0.3,0.1,0.7,0.1,1c0,1.6-0.6,3.2-1.6,4.4l-0.1,0.3l0.1,0.3c0.2,0.4,0.4,0.8,0.8,1.2l0.2,0.2h0.2c0.4,0,0.7,0,1.1,0.1
			c1.2,0.2,2.3,0.9,3,1.9s1,2.2,0.8,3.5c-0.2,1.2-0.9,2.3-1.9,3s-2.2,1-3.5,0.8c-1.2-0.2-2.3-0.9-3-1.9l0,0c0.1,0.1,0.1,0.2,0.2,0.3
			c0.7,1.1,1.9,1.8,3.1,2c0.3,0.1,0.6,0.1,0.9,0.1c1,0,2-0.3,2.8-0.9c1.1-0.7,1.8-1.9,2-3.1c0.2-1.3-0.1-2.6-0.8-3.6
			c-0.7-1.1-1.9-1.8-3.1-2c-0.4-0.1-0.7-0.1-1.1-0.1H33l-0.1-0.1c-0.3-0.3-0.6-0.7-0.7-1.1l-0.3-0.4l0.1-0.1
			c1.1-1.3,1.6-2.9,1.6-4.6c0-0.3,0-0.7-0.1-1.1v-0.1v-0.1c0.3-0.7,0.7-1.4,1-2l0.1-0.2l0.2,0.1c0.6,0.4,1.2,0.6,1.9,0.7
			c1.3,0.2,2.6-0.2,3.6-0.9c1-0.8,1.7-1.9,1.9-3.2s-0.2-2.6-0.9-3.6C40.6,8.5,39.5,7.8,38.2,7.7z"/>
		<path d="M32.6,11.7c0,0.3-0.1,0.7,0,1.1V13l-0.2,0.2c-0.4,0.4-0.7,0.6-1.2,0.8c0.5-0.2,1-0.5,1.4-0.9l0.1-0.1v-0.1
			C32.7,12.5,32.7,12.1,32.6,11.7c0.3-1.7,1.5-3.1,3.1-3.7C34.1,8.5,32.8,9.9,32.6,11.7z"/>
		<path d="M15.4,21.6c0.6,0.2,1.2,0.4,1.7,0.8l0.4,0.3l0.3-0.3l-0.1-0.1c-0.5-0.4-1.1-0.7-1.8-0.9c-1-0.3-2.1-0.2-3.1,0.2
			C13.6,21.4,14.5,21.4,15.4,21.6z"/>
		<path d="M18,22.3c0.4-0.4,0.7-0.9,1.1-1.5v-0.1v-0.1c0-0.3,0-0.5,0-0.8c0-0.8,0.1-1.6,0.4-2.4l0,0l0,0c0-0.8-0.2-1.5-0.6-2
			c0.3,0.5,0.5,1.2,0.5,1.9v0.1v0.1C19.1,18.2,19,19,19,19.8c0,0.3,0,0.5,0,0.8v0.2l-0.1,0.1c-0.4,0.6-0.7,1.1-1.1,1.5l-0.1,0.1
			l0.1,0.1L18,22.3z"/>
		<path d="M17.9,14.2l-0.2-0.1l-0.2,0.1c-0.3,0.1-0.7,0.1-1.1,0.1c-2.5,0-4.6-2-4.6-4.6c0,0,0,0,0,0.1c0,2.7,2.3,4.9,5,4.9
			c0.4,0,0.7,0,1.1-0.1H18l0.1,0.1c0.3,0.2,0.6,0.5,0.8,0.8C18.6,14.9,18.3,14.5,17.9,14.2z"/>
		<path d="M28.5,2.3c-1.3-0.4-2.7,0.2-3.1,1.5s0.2,2.7,1.5,3.1H27c-1.1-0.4-1.6-1.6-1.3-2.7c0.4-1.1,1.6-1.8,2.8-1.4
			c0.9,0.3,1.6,1.2,1.6,2.1C30.2,3.8,29.6,2.7,28.5,2.3z"/>
	</g>
	<g>
		<g>
			
				<radialGradient id="SVGID_1_" cx="11.83" cy="28.769" r="0.2955" gradientTransform="matrix(1 0 0 -1 0 36)" gradientUnits="userSpaceOnUse">
				<stop  offset="6.606787e-02" style="stop-color:#FFA840"/>
				<stop  offset="8.681715e-02" style="stop-color:#FFA443"/>
				<stop  offset="0.2965" style="stop-color:#FF815D"/>
				<stop  offset="0.468" style="stop-color:#FF6B6D"/>
				<stop  offset="0.5787" style="stop-color:#FF6373"/>
				<stop  offset="1" style="stop-color:#9300BF"/>
			</radialGradient>
			<path class="st1" d="M11.8,7.6C11.8,7.7,11.8,7.7,11.8,7.6c0-0.2,0-0.5,0.1-0.8C11.8,7.1,11.8,7.4,11.8,7.6z"/>
			
				<radialGradient id="SVGID_2_" cx="386.471" cy="25.3419" r="392.1847" gradientTransform="matrix(1 0 0 -1 0 36)" gradientUnits="userSpaceOnUse">
				<stop  offset="6.606787e-02" style="stop-color:#FFA840"/>
				<stop  offset="8.681715e-02" style="stop-color:#FFA443"/>
				<stop  offset="0.2965" style="stop-color:#FF815D"/>
				<stop  offset="0.468" style="stop-color:#FF6B6D"/>
				<stop  offset="0.5787" style="stop-color:#FF6373"/>
				<stop  offset="1" style="stop-color:#9300BF"/>
			</radialGradient>
			<path class="st2" d="M9.9,25.7c-0.1-0.3-0.2-0.6-0.2-0.9C9.7,25.1,9.8,25.4,9.9,25.7z"/>
			
				<radialGradient id="SVGID_3_" cx="386.471" cy="25.3419" r="392.1847" gradientTransform="matrix(1 0 0 -1 0 36)" gradientUnits="userSpaceOnUse">
				<stop  offset="6.606787e-02" style="stop-color:#FFA840"/>
				<stop  offset="8.681715e-02" style="stop-color:#FFA443"/>
				<stop  offset="0.2965" style="stop-color:#FF815D"/>
				<stop  offset="0.468" style="stop-color:#FF6B6D"/>
				<stop  offset="0.5787" style="stop-color:#FF6373"/>
				<stop  offset="1" style="stop-color:#9300BF"/>
			</radialGradient>
			<path class="st3" d="M30.8,12.1L30.8,12.1c-1.4-1-2.9-1.5-4.5-1.5c-0.8,0-1.5,0.1-2.3,0.4h-0.1h-0.1c-0.5-0.2-1.5-0.5-2.4-1
				l-0.2-0.1l0.1-0.2c0.3-0.6,0.4-1.3,0.4-2c0-2.7-2.2-5.2-4.9-4.9c-0.4,0-0.7,0.1-1,0.2c0.2,0,0.4,0,0.7,0c2.5,0,4.6,2.1,4.6,4.6
				c0,0.6-0.1,1.3-0.4,1.9l-0.2,0.4l0.4,0.2c0.9,0.5,2,0.8,2.6,0.9h0.1h0.1c0.7-0.2,1.5-0.4,2.2-0.4c1.5,0,3,0.5,4.2,1.4l0.2,0.1
				l0.2-0.1c0.2,0,0.4-0.1,0.6-0.2c-0.1,0-0.2,0.1-0.3,0.1L30.8,12.1z"/>
			
				<radialGradient id="SVGID_4_" cx="386.471" cy="25.3419" r="392.1847" gradientTransform="matrix(1 0 0 -1 0 36)" gradientUnits="userSpaceOnUse">
				<stop  offset="6.606787e-02" style="stop-color:#FFA840"/>
				<stop  offset="8.681715e-02" style="stop-color:#FFA443"/>
				<stop  offset="0.2965" style="stop-color:#FF815D"/>
				<stop  offset="0.468" style="stop-color:#FF6B6D"/>
				<stop  offset="0.5787" style="stop-color:#FF6373"/>
				<stop  offset="1" style="stop-color:#9300BF"/>
			</radialGradient>
			<path class="st4" d="M28.8,25.4c-0.3-0.2-0.7-0.5-1.1-0.7l-0.1-0.1h-0.2c-0.5,0.1-0.9,0.1-1.4,0.1c-1.7,0-3.3-0.6-4.5-1.7h-0.2
				l0,0c-0.8-0.9-1.3-1.5-1.3-1.7c0,0,0-0.1-0.1-0.1c0,0-0.1,0-0.1,0.1c0,0.4,0.3,1.1,0.9,1.8H21c-0.7,0-1.4,0.3-2,0.8L18.8,24v0.2
				c0,0.4-0.1,0.7-0.1,1.1c-0.3,1.2-1.1,2.2-2.1,2.8c-1.1,0.6-2.3,1.1-3.4,0.8c0.1,0,0.2,0.1,0.3,0.1c1.3,0.3,2.6,0.1,3.7-0.5
				c1.1-0.7,1.9-1.7,2.3-3c0.1-0.4,0.1-0.7,0.2-1.1v-0.1l0.1-0.1c0.6-0.5,1.2-0.7,1.9-0.7h0.1l0.1,0.1c1.3,1.1,3,1.7,4.7,1.7
				c0.5,0,1,0,1.5-0.1h0.1h0.1c0.4,0.2,0.7,0.4,1,0.7l0.1,0.1l0.1-0.1L28.8,25.4z"/>
			
				<radialGradient id="SVGID_5_" cx="386.471" cy="25.3419" r="392.1847" gradientTransform="matrix(1 0 0 -1 0 36)" gradientUnits="userSpaceOnUse">
				<stop  offset="6.606787e-02" style="stop-color:#FFA840"/>
				<stop  offset="8.681715e-02" style="stop-color:#FFA443"/>
				<stop  offset="0.2965" style="stop-color:#FF815D"/>
				<stop  offset="0.468" style="stop-color:#FF6B6D"/>
				<stop  offset="0.5787" style="stop-color:#FF6373"/>
				<stop  offset="1" style="stop-color:#9300BF"/>
			</radialGradient>
			<path class="st5" d="M28.4,27.9c0.1-0.7,0.4-1.3,0.7-1.9l0.1-0.2l-0.1-0.1L28.9,26c-0.4,0.5-0.6,1.1-0.7,1.8
				c-0.2,1.2,0,2.4,0.7,3.4C28.4,30.2,28.2,29.1,28.4,27.9z"/>
			
				<radialGradient id="SVGID_6_" cx="386.471" cy="25.3419" r="392.1847" gradientTransform="matrix(1 0 0 -1 0 36)" gradientUnits="userSpaceOnUse">
				<stop  offset="6.606787e-02" style="stop-color:#FFA840"/>
				<stop  offset="8.681715e-02" style="stop-color:#FFA443"/>
				<stop  offset="0.2965" style="stop-color:#FF815D"/>
				<stop  offset="0.468" style="stop-color:#FF6B6D"/>
				<stop  offset="0.5787" style="stop-color:#FF6373"/>
				<stop  offset="1" style="stop-color:#9300BF"/>
			</radialGradient>
			<path class="st6" d="M10,25.8c0.5,1.4,1.7,2.6,3.2,3l0,0C11.6,28.4,10.5,27.2,10,25.8z"/>
			
				<radialGradient id="SVGID_7_" cx="386.471" cy="25.3419" r="392.1847" gradientTransform="matrix(1 0 0 -1 0 36)" gradientUnits="userSpaceOnUse">
				<stop  offset="6.606787e-02" style="stop-color:#FFA840"/>
				<stop  offset="8.681715e-02" style="stop-color:#FFA443"/>
				<stop  offset="0.2965" style="stop-color:#FF815D"/>
				<stop  offset="0.468" style="stop-color:#FF6B6D"/>
				<stop  offset="0.5787" style="stop-color:#FF6373"/>
				<stop  offset="1" style="stop-color:#9300BF"/>
			</radialGradient>
			<path class="st7" d="M38.2,5.7c-0.9-0.1-1.8,0-2.5,0.3c0.7-0.2,1.4-0.3,2.1-0.2c1.2,0.1,2.3,0.8,3,1.8s1.1,2.2,0.9,3.4
				c-0.2,1.2-0.8,2.3-1.8,3.1c-1,0.7-2.2,1.1-3.4,0.9c-0.6-0.1-1.2-0.3-1.8-0.6L34.3,14L34,14.4c-0.4,0.6-0.7,1.2-1.1,2l0,0.2v0.1
				c0,0.3,0.1,0.7,0.1,1c0,1.6-0.6,3.2-1.6,4.4l-0.1,0.3l0.1,0.3c0.2,0.4,0.4,0.8,0.8,1.2l0.2,0.2h0.2c0.4,0,0.7,0,1.1,0.1
				c1.2,0.2,2.3,0.9,3,1.9s1,2.2,0.8,3.5c-0.2,1.2-0.9,2.3-1.9,3s-2.2,1-3.5,0.8c-1.2-0.2-2.3-0.9-3-1.9l0,0
				c0.1,0.1,0.1,0.2,0.2,0.3c0.7,1.1,1.9,1.8,3.1,2c0.3,0.1,0.6,0.1,0.9,0.1c1,0,2-0.3,2.8-0.9c1.1-0.7,1.8-1.9,2-3.1
				c0.2-1.3-0.1-2.6-0.8-3.6c-0.7-1.1-1.9-1.8-3.1-2c-0.4-0.1-0.7-0.1-1.1-0.1H33l-0.1-0.1c-0.3-0.3-0.6-0.7-0.7-1.1l-0.3-0.4
				l0.1-0.1c1.1-1.3,1.6-2.9,1.6-4.6c0-0.3,0-0.7-0.1-1.1v-0.1v-0.1c0.3-0.7,0.7-1.4,1-2l0.1-0.2l0.2,0.1c0.6,0.4,1.2,0.6,1.9,0.7
				c1.3,0.2,2.6-0.2,3.6-0.9c1-0.8,1.7-1.9,1.9-3.2S42,8.5,41.3,7.5C40.6,6.5,39.5,5.8,38.2,5.7z"/>
			
				<radialGradient id="SVGID_8_" cx="386.471" cy="25.3419" r="392.1847" gradientTransform="matrix(1 0 0 -1 0 36)" gradientUnits="userSpaceOnUse">
				<stop  offset="6.606787e-02" style="stop-color:#FFA840"/>
				<stop  offset="8.681715e-02" style="stop-color:#FFA443"/>
				<stop  offset="0.2965" style="stop-color:#FF815D"/>
				<stop  offset="0.468" style="stop-color:#FF6B6D"/>
				<stop  offset="0.5787" style="stop-color:#FF6373"/>
				<stop  offset="1" style="stop-color:#9300BF"/>
			</radialGradient>
			<path class="st8" d="M32.6,9.7c0,0.3-0.1,0.7,0,1.1V11l-0.2,0.2c-0.4,0.4-0.7,0.6-1.2,0.8c0.5-0.2,1-0.5,1.4-0.9l0.1-0.1v-0.1
				C32.7,10.5,32.7,10.1,32.6,9.7C32.9,8,34.1,6.6,35.7,6C34.1,6.5,32.8,7.9,32.6,9.7z"/>
			
				<radialGradient id="SVGID_9_" cx="386.471" cy="25.3419" r="392.1847" gradientTransform="matrix(1 0 0 -1 0 36)" gradientUnits="userSpaceOnUse">
				<stop  offset="6.606787e-02" style="stop-color:#FFA840"/>
				<stop  offset="8.681715e-02" style="stop-color:#FFA443"/>
				<stop  offset="0.2965" style="stop-color:#FF815D"/>
				<stop  offset="0.468" style="stop-color:#FF6B6D"/>
				<stop  offset="0.5787" style="stop-color:#FF6373"/>
				<stop  offset="1" style="stop-color:#9300BF"/>
			</radialGradient>
			<path class="st9" d="M15.4,19.6c0.6,0.2,1.2,0.4,1.7,0.8l0.4,0.3l0.3-0.3l-0.1-0.1c-0.5-0.4-1.1-0.7-1.8-0.9
				c-1-0.3-2.1-0.2-3.1,0.2C13.6,19.4,14.5,19.4,15.4,19.6z"/>
			
				<radialGradient id="SVGID_10_" cx="386.471" cy="25.3419" r="392.1847" gradientTransform="matrix(1 0 0 -1 0 36)" gradientUnits="userSpaceOnUse">
				<stop  offset="6.606787e-02" style="stop-color:#FFA840"/>
				<stop  offset="8.681715e-02" style="stop-color:#FFA443"/>
				<stop  offset="0.2965" style="stop-color:#FF815D"/>
				<stop  offset="0.468" style="stop-color:#FF6B6D"/>
				<stop  offset="0.5787" style="stop-color:#FF6373"/>
				<stop  offset="1" style="stop-color:#9300BF"/>
			</radialGradient>
			<path class="st10" d="M18,20.3c0.4-0.4,0.7-0.9,1.1-1.5v-0.1v-0.1c0-0.3,0-0.5,0-0.8c0-0.8,0.1-1.6,0.4-2.4l0,0l0,0
				c0-0.8-0.2-1.5-0.6-2c0.3,0.5,0.5,1.2,0.5,1.9v0.1v0.1C19.1,16.2,19,17,19,17.8c0,0.3,0,0.5,0,0.8v0.2l-0.1,0.1
				c-0.4,0.6-0.7,1.1-1.1,1.5l-0.1,0.1l0.1,0.1L18,20.3z"/>
			
				<radialGradient id="SVGID_11_" cx="386.471" cy="25.3419" r="392.1847" gradientTransform="matrix(1 0 0 -1 0 36)" gradientUnits="userSpaceOnUse">
				<stop  offset="6.606787e-02" style="stop-color:#FFA840"/>
				<stop  offset="8.681715e-02" style="stop-color:#FFA443"/>
				<stop  offset="0.2965" style="stop-color:#FF815D"/>
				<stop  offset="0.468" style="stop-color:#FF6B6D"/>
				<stop  offset="0.5787" style="stop-color:#FF6373"/>
				<stop  offset="1" style="stop-color:#9300BF"/>
			</radialGradient>
			<path class="st11" d="M17.9,12.2l-0.2-0.1l-0.2,0.1c-0.3,0.1-0.7,0.1-1.1,0.1c-2.5,0-4.6-2-4.6-4.6c0,0,0,0,0,0.1
				c0,2.7,2.3,4.9,5,4.9c0.4,0,0.7,0,1.1-0.1H18l0.1,0.1c0.3,0.2,0.6,0.5,0.8,0.8C18.6,12.9,18.3,12.5,17.9,12.2z"/>
			
				<radialGradient id="SVGID_12_" cx="386.471" cy="25.3419" r="392.1847" gradientTransform="matrix(1 0 0 -1 0 36)" gradientUnits="userSpaceOnUse">
				<stop  offset="6.606787e-02" style="stop-color:#FFA840"/>
				<stop  offset="8.681715e-02" style="stop-color:#FFA443"/>
				<stop  offset="0.2965" style="stop-color:#FF815D"/>
				<stop  offset="0.468" style="stop-color:#FF6B6D"/>
				<stop  offset="0.5787" style="stop-color:#FF6373"/>
				<stop  offset="1" style="stop-color:#9300BF"/>
			</radialGradient>
			<path class="st12" d="M28.5,0.3c-1.3-0.4-2.7,0.2-3.1,1.5s0.2,2.7,1.5,3.1H27c-1.1-0.4-1.6-1.6-1.3-2.7c0.4-1.1,1.6-1.8,2.8-1.4
				c0.9,0.3,1.6,1.2,1.6,2.1C30.2,1.8,29.6,0.7,28.5,0.3z"/>
		</g>
	</g>
</g>
</svg>
