<?xml version="1.0" encoding="utf-8"?>
<!-- Generator: Adobe Illustrator 19.0.1, SVG Export Plug-In . SVG Version: 6.00 Build 0)  -->
<svg version="1.1" id="Capa_1" xmlns="http://www.w3.org/2000/svg" xmlns:xlink="http://www.w3.org/1999/xlink" x="0px" y="0px"
	 viewBox="4 -4 44 44" style="enable-background:new 4 -4 44 44;" xml:space="preserve">
<style type="text/css">
	.st0{opacity:0.45;}
	.st1{fill:url(#SVGID_1_);}
	.st2{fill:url(#SVGID_2_);}
	.st3{fill:url(#SVGID_3_);}
	.st4{fill:url(#SVGID_4_);}
	.st5{fill:url(#SVGID_5_);}
</style>
<g>
	<g class="st0">
		<path d="M12.5,13.6c-2-0.7-4.1,0.4-4.8,2.4s0.4,4.1,2.4,4.8c0.1,0,0.1,0,0.2,0.1c-1.7-0.7-2.5-2.5-2-4.3c0.6-1.8,2.5-2.7,4.3-2.1
			c1.4,0.5,2.5,1.9,2.4,3.3C15.3,15.9,14.3,14.2,12.5,13.6z"/>
		<path d="M44.2,11c-1-3.2-4.5-4.9-7.6-3.8c-2.2,0.7-3.5,2.1-3.9,4c0.5-1.6,1.7-3,3.4-3.6c2.7-0.9,5.7,0.6,6.6,3.3
			c0.9,2.7-0.6,5.7-3.3,6.6c-0.5,0.2-1,0.3-1.6,0.3h-0.2L37.5,18c-0.8,1.5-1,3.6-1,4.7v0.1v0.1c0.2,0.7,0.3,1.4,0.3,2
			c0.1,2.4-0.7,4.7-2.4,6.5c-1.6,1.8-3.9,2.8-6.3,2.9c-0.1,0-0.3,0-0.4,0c-4.8,0-8.8-3.8-9-8.6c-0.1-1.6,0.3-3.1,1-4.5
			c0.7-1.3,1.7-2.5,3-3.3l0.1-0.1v-0.1c0.2-0.7,0.1-1.5-0.2-2.3c0.2,0,0.4,0,0.5,0.1c0,0,0.3-0.3,0-0.6c0,0-3.9,0.2-5.4-3.3
			c0,0,0.5,3.1,4.7,3.8c0.1,0.8,0,1.8-0.1,2.3c-1.3,0.9-2,2.2-2.7,3.6c-0.8,1.5-1.1,3.2-1.1,4.9c0.2,5.2,4.6,9.3,9.8,9.3
			c0.2,0,0.3,0,0.5,0c2.6-0.1,5-1.2,6.8-3.2c1.8-1.9,2.7-4.4,2.6-7c0-0.7-0.2-1.5-0.3-2.2c0-1,0.2-2.8,0.8-4.1
			c0.5,0,1.1-0.1,1.6-0.3c1.5-0.5,2.8-1.6,3.5-3C44.6,14.2,44.7,12.6,44.2,11z"/>
		<path d="M28.5,15.9L28.5,15.9c-0.2-0.4-0.4-0.8-0.5-1.2c0.9-0.6,1.6-1.4,2.1-2.4c0.6-1,0.8-2.2,0.8-3.4c-0.2-3.7-3.3-6.5-7-6.4
			c-1.9,0.1-3.5,0.9-4.7,2.2C18,6,17.5,7,17.5,8.8c0-1.4,0.6-2.8,1.6-3.9c1.1-1.2,2.5-1.8,4.1-1.9c0.1,0,0.2,0,0.3,0
			c3.2,0,5.8,2.5,5.9,5.6c0.1,2.1-0.9,4.1-2.7,5.2l-0.2,0.1l0.1,0.3c0.1,0.6,0.3,1.2,0.7,1.9l0.1,0.2h0.2c1.8,0,3.6,0.4,5.1,1.4
			l0.3,0.2l0.2-0.3c0.3-0.4,0.5-0.8,0.7-1.3v-0.1c-0.1,0.3-0.4,0.8-0.4,0.9C31.9,16.3,30.2,15.9,28.5,15.9z"/>
		<path d="M33.9,16.2L33.9,16.2L33.9,16.2L33.9,16.2z"/>
		<path d="M32.8,14.2c0.2,0.6,0.5,1.1,0.8,1.5c0.1,0.1,0.2,0.2,0.3,0.4c0,0,0,0,0,0.1l0,0c0.2,0.2,0.4,0.4,0.6,0.6
			c0,0,0.4-0.1,0.3-0.4c0,0-1.7-1-2.1-2.9c-0.1-0.6-0.1-1.1,0-1.7v-0.1c0,0,0,0,0,0.1c0-0.2,0.1-0.4,0.1-0.5
			c-0.1,0.4-0.2,0.9-0.2,1.4C32.5,13,32.6,13.6,32.8,14.2z"/>
	</g>
	<g>
		<g>
			
				<radialGradient id="SVGID_1_" cx="148.948" cy="24.8788" r="380.7281" gradientTransform="matrix(1 0 0 -1 0 36)" gradientUnits="userSpaceOnUse">
				<stop  offset="6.606787e-02" style="stop-color:#FFA840"/>
				<stop  offset="8.681715e-02" style="stop-color:#FFA443"/>
				<stop  offset="0.2965" style="stop-color:#FF815D"/>
				<stop  offset="0.468" style="stop-color:#FF6B6D"/>
				<stop  offset="0.5787" style="stop-color:#FF6373"/>
				<stop  offset="1" style="stop-color:#9300BF"/>
			</radialGradient>
			<path class="st1" d="M12.5,11.6c-2-0.7-4.1,0.4-4.8,2.4s0.4,4.1,2.4,4.8c0.1,0,0.1,0,0.2,0.1c-1.7-0.7-2.5-2.5-2-4.3
				c0.6-1.8,2.5-2.7,4.3-2.1c1.4,0.5,2.5,1.9,2.4,3.3C15.3,13.9,14.3,12.2,12.5,11.6z"/>
			
				<radialGradient id="SVGID_2_" cx="148.948" cy="24.8788" r="380.7281" gradientTransform="matrix(1 0 0 -1 0 36)" gradientUnits="userSpaceOnUse">
				<stop  offset="6.606787e-02" style="stop-color:#FFA840"/>
				<stop  offset="8.681715e-02" style="stop-color:#FFA443"/>
				<stop  offset="0.2965" style="stop-color:#FF815D"/>
				<stop  offset="0.468" style="stop-color:#FF6B6D"/>
				<stop  offset="0.5787" style="stop-color:#FF6373"/>
				<stop  offset="1" style="stop-color:#9300BF"/>
			</radialGradient>
			<path class="st2" d="M44.2,9c-1-3.2-4.5-4.9-7.6-3.8c-2.2,0.7-3.5,2.1-3.9,4c0.5-1.6,1.7-3,3.4-3.6c2.7-0.9,5.7,0.6,6.6,3.3
				c0.9,2.7-0.6,5.7-3.3,6.6c-0.5,0.2-1,0.3-1.6,0.3h-0.2L37.5,16c-0.8,1.5-1,3.6-1,4.7v0.1v0.1c0.2,0.7,0.3,1.4,0.3,2
				c0.1,2.4-0.7,4.7-2.4,6.5c-1.6,1.8-3.9,2.8-6.3,2.9c-0.1,0-0.3,0-0.4,0c-4.8,0-8.8-3.8-9-8.6c-0.1-1.6,0.3-3.1,1-4.5
				c0.7-1.3,1.7-2.5,3-3.3l0.1-0.1v-0.1c0.2-0.7,0.1-1.5-0.2-2.3c0.2,0,0.4,0,0.5,0.1c0,0,0.3-0.3,0-0.6c0,0-3.9,0.2-5.4-3.3
				c0,0,0.5,3.1,4.7,3.8c0.1,0.8,0,1.8-0.1,2.3c-1.3,0.9-2,2.2-2.7,3.6c-0.8,1.5-1.1,3.2-1.1,4.9c0.2,5.2,4.6,9.3,9.8,9.3
				c0.2,0,0.3,0,0.5,0c2.6-0.1,5-1.2,6.8-3.2c1.8-1.9,2.7-4.4,2.6-7c0-0.7-0.2-1.5-0.3-2.2c0-1,0.2-2.8,0.8-4.1
				c0.5,0,1.1-0.1,1.6-0.3c1.5-0.5,2.8-1.6,3.5-3C44.6,12.2,44.7,10.6,44.2,9z"/>
			
				<radialGradient id="SVGID_3_" cx="148.948" cy="24.8788" r="380.7281" gradientTransform="matrix(1 0 0 -1 0 36)" gradientUnits="userSpaceOnUse">
				<stop  offset="6.606787e-02" style="stop-color:#FFA840"/>
				<stop  offset="8.681715e-02" style="stop-color:#FFA443"/>
				<stop  offset="0.2965" style="stop-color:#FF815D"/>
				<stop  offset="0.468" style="stop-color:#FF6B6D"/>
				<stop  offset="0.5787" style="stop-color:#FF6373"/>
				<stop  offset="1" style="stop-color:#9300BF"/>
			</radialGradient>
			<path class="st3" d="M28.5,13.9L28.5,13.9c-0.2-0.4-0.4-0.8-0.5-1.2c0.9-0.6,1.6-1.4,2.1-2.4c0.6-1,0.8-2.2,0.8-3.4
				c-0.2-3.7-3.3-6.5-7-6.4c-1.9,0.1-3.5,0.9-4.7,2.2C18,4,17.5,5,17.5,6.8c0-1.4,0.6-2.8,1.6-3.9c1.1-1.2,2.5-1.8,4.1-1.9
				c0.1,0,0.2,0,0.3,0c3.2,0,5.8,2.5,5.9,5.6c0.1,2.1-0.9,4.1-2.7,5.2l-0.2,0.1l0.1,0.3c0.1,0.6,0.3,1.2,0.7,1.9l0.1,0.2h0.2
				c1.8,0,3.6,0.4,5.1,1.4l0.3,0.2l0.2-0.3c0.3-0.4,0.5-0.8,0.7-1.3v-0.1c-0.1,0.3-0.4,0.8-0.4,0.9C31.9,14.3,30.2,13.9,28.5,13.9z"
				/>
			
				<radialGradient id="SVGID_4_" cx="33.9029" cy="21.7987" r="0" gradientTransform="matrix(1 0 0 -1 0 36)" gradientUnits="userSpaceOnUse">
				<stop  offset="6.606787e-02" style="stop-color:#FFA840"/>
				<stop  offset="8.681715e-02" style="stop-color:#FFA443"/>
				<stop  offset="0.2965" style="stop-color:#FF815D"/>
				<stop  offset="0.468" style="stop-color:#FF6B6D"/>
				<stop  offset="0.5787" style="stop-color:#FF6373"/>
				<stop  offset="1" style="stop-color:#9300BF"/>
			</radialGradient>
			<path class="st4" d="M33.9,14.2L33.9,14.2L33.9,14.2L33.9,14.2z"/>
			
				<radialGradient id="SVGID_5_" cx="148.948" cy="24.8788" r="380.7281" gradientTransform="matrix(1 0 0 -1 0 36)" gradientUnits="userSpaceOnUse">
				<stop  offset="6.606787e-02" style="stop-color:#FFA840"/>
				<stop  offset="8.681715e-02" style="stop-color:#FFA443"/>
				<stop  offset="0.2965" style="stop-color:#FF815D"/>
				<stop  offset="0.468" style="stop-color:#FF6B6D"/>
				<stop  offset="0.5787" style="stop-color:#FF6373"/>
				<stop  offset="1" style="stop-color:#9300BF"/>
			</radialGradient>
			<path class="st5" d="M32.8,12.2c0.2,0.6,0.5,1.1,0.8,1.5c0.1,0.1,0.2,0.2,0.3,0.4c0,0,0,0,0,0.1l0,0c0.2,0.2,0.4,0.4,0.6,0.6
				c0,0,0.4-0.1,0.3-0.4c0,0-1.7-1-2.1-2.9c-0.1-0.6-0.1-1.1,0-1.7V9.7c0,0,0,0,0,0.1c0-0.2,0.1-0.4,0.1-0.5
				c-0.1,0.4-0.2,0.9-0.2,1.4C32.5,11,32.6,11.6,32.8,12.2z"/>
		</g>
	</g>
</g>
</svg>
