<?xml version="1.0" encoding="utf-8"?>
<!-- Generator: Adobe Illustrator 19.0.1, SVG Export Plug-In . SVG Version: 6.00 Build 0)  -->
<svg version="1.1" id="Capa_1" xmlns="http://www.w3.org/2000/svg" xmlns:xlink="http://www.w3.org/1999/xlink" x="0px" y="0px"
	 viewBox="0 0 44 44" style="enable-background:new 0 0 44 44;" xml:space="preserve">
<style type="text/css">
	.st0{fill:#FFFFFF;}
</style>
<g>
	<path class="st0" d="M18,25L18,25L18,25c-0.2,0.4-0.3,0.8-0.3,1.3C17.7,25.8,17.8,25.4,18,25L18,25z"/>
	<path class="st0" d="M26.4,19c-1,0-1.9,0.2-2.8,0.4l-0.1,0l-0.1,0c-0.8-0.2-2.1-0.6-3.2-1.1L20,18.2l0.1-0.3
		c0.3-0.8,0.5-1.6,0.5-2.4c0-3.3-2.7-6-6-6c-1.8,0-3.3,0.8-4.4,2c1-1.1,2.5-1.8,4.1-1.8c3.1,0,5.7,2.5,5.7,5.7
		c0,0.8-0.2,1.6-0.5,2.3l-0.2,0.5l0.5,0.3c1.2,0.6,2.4,0.9,3.3,1.1l0.3,0l0,0c0.9-0.3,1.8-0.4,2.7-0.4c4.8,0,8.6,3.9,8.6,8.6
		c0,4.8-3.9,8.6-8.6,8.6c-4.8,0-8.6-3.9-8.6-8.6c0-0.5,0-1,0.1-1.6c-0.1,0.6-0.2,1.1-0.2,1.7c0,4.9,4,9,9,9c4.9,0,9-4,9-9
		C35.4,23,31.3,19,26.4,19z"/>
	<path class="st0" d="M26.4,18c-1,0-1.9,0-2.9,0.6c-0.6-0.1-1.5-0.6-2.3-0.9c0.2-0.7,0.4-1.4,0.4-2.2c0-3.8-3.1-6.9-6.9-6.9
		c-3.8,0-6.9,3.1-6.9,6.9c0,3.8,3.1,6.9,6.9,6.9c0.4,0,0.9,0,1.3-0.1c0.7,0.6,1.1,1.5,1.1,2.5c-0.3,1-0.5,2.1-0.5,3.1
		c0,5.5,4.4,9.9,9.9,9.9s9.9-4.4,9.9-9.9C36.3,22.5,31.9,18,26.4,18z M26.4,37.5c-5.3,0-9.6-4.3-9.6-9.6c0-1,0.2-2.1,0.5-3l0,0l0,0
		c0-1.2-0.5-2.1-1.3-2.8L16,22l-0.1,0c-0.4,0.1-0.9,0.1-1.3,0.1c-3.6,0-6.6-3-6.6-6.6s3-6.6,6.6-6.6c3.6,0,6.6,3,6.6,6.6
		c0,0.8-0.1,1.5-0.4,2.2l0,0.1l0.1,0.1c0.9,0.4,1.9,0.7,2.5,0.8l0,0l0,0c0.9-0.3,1.9-0.4,2.9-0.4c5.3,0,9.6,4.3,9.6,9.6
		C36,33.2,31.7,37.5,26.4,37.5z"/>
	<path class="st0" d="M17.9,24.4L17.9,24.4l0-0.2c0-1.6-0.6-2.8-1.8-3.7l-0.2-0.2l-0.3,0.1c-0.4,0.1-0.9,0.2-1.3,0.2
		c-3.1,0-5.7-2.5-5.7-5.7c0-0.3,0-0.7,0.1-1c-0.1,0.4-0.1,0.7-0.1,1.1c0,3.3,2.7,6,6,6c0.5,0,0.9-0.1,1.4-0.2l0.1,0l0.1,0.1
		C17.3,21.7,17.9,22.9,17.9,24.4L17.9,24.4z"/>
	<path class="st0" d="M26.7,15c2.2,1.4,5.2,0.8,6.6-1.5c1.4-2.2,0.8-5.2-1.5-6.6c-1.1-0.7-2.3-0.9-3.5-0.7c1-0.1,2,0.2,3.3,1
		c2,1.3,2.4,4,1.1,6.1S29,15.8,27,14.5c-2.1-1.3-3.1-3.7-1.9-5.8c0.3-0.6,0.7-1.1,1.2-1.5c-0.4,0.3-0.8,0.7-1.1,1.2
		C23.8,10.6,24.4,13.6,26.7,15z"/>
	<path class="st0" d="M30.2,7.1c-1.9-0.7-4,0.4-4.7,2.3c-0.7,1.9,0.4,4,2.3,4.7c0.1,0,0.1,0,0.2,0c-1.6-0.7-2.5-2.5-1.9-4.2
		c0.6-1.7,2.5-2.7,4.2-2.1c1.4,0.5,2.4,1.8,2.4,3.2C32.9,9.4,31.9,7.7,30.2,7.1z"/>
</g>
</svg>
