<?xml version="1.0" encoding="utf-8"?>
<!-- Generator: Adobe Illustrator 19.0.1, SVG Export Plug-In . SVG Version: 6.00 Build 0)  -->
<svg version="1.1" id="Capa_1" xmlns="http://www.w3.org/2000/svg" xmlns:xlink="http://www.w3.org/1999/xlink" x="0px" y="0px"
	 viewBox="0 0 44 44" style="enable-background:new 0 0 44 44;" xml:space="preserve">
<style type="text/css">
	.st0{fill:#FFFFFF;}
</style>
<g>
	<path class="st0" d="M8.4,13C8.4,13,8.4,13.1,8.4,13c0-0.2,0-0.5,0.1-0.7C8.4,12.5,8.4,12.8,8.4,13z"/>
	<path class="st0" d="M6.6,30.2c-0.1-0.3-0.2-0.6-0.2-0.8C6.4,29.6,6.5,29.9,6.6,30.2z"/>
	<path class="st0" d="M26.5,17.3L26.5,17.3c-1.3-1-2.7-1.5-4.3-1.5c-0.7,0-1.5,0.1-2.2,0.3l-0.1,0l-0.1,0c-0.6-0.2-1.6-0.4-2.5-0.9
		l-0.2-0.1l0.1-0.2c0.3-0.6,0.4-1.2,0.4-1.9c0-2.6-2.1-4.9-4.6-4.6c-0.4,0-0.7,0.1-1,0.2c0.2,0,0.4,0,0.6,0c2.4,0,4.4,2,4.4,4.4
		c0,0.6-0.1,1.2-0.4,1.8l-0.2,0.4l0.4,0.2c0.9,0.4,1.9,0.7,2.5,0.9l0.1,0l0.1,0c0.7-0.2,1.4-0.3,2.1-0.3c1.5,0,2.9,0.5,4,1.3
		l0.2,0.1l0.2-0.1c0.2,0,0.4-0.1,0.6-0.2c-0.1,0-0.2,0.1-0.3,0.1L26.5,17.3z"/>
	<path class="st0" d="M24.6,29.9c-0.3-0.2-0.6-0.4-1-0.7l-0.2-0.1l-0.2,0c-0.4,0.1-0.9,0.1-1.3,0.1c-1.6,0-3.1-0.6-4.3-1.6l-0.1-0.1
		l0,0c-0.8-0.8-1.2-1.4-1.2-1.7c0,0,0-0.1-0.1-0.1c0,0-0.1,0-0.1,0.1c0,0.4,0.2,1.1,0.8,1.7l0.3,0c-0.7,0-1.4,0.3-1.9,0.8l-0.2,0.1
		l0,0.2c0,0.3-0.1,0.7-0.1,1c-0.3,1.1-1,2.1-2,2.7c-1,0.6-2.1,1-3.3,0.7c0.1,0,0.2,0,0.2,0.1c1.2,0.3,2.4,0.1,3.5-0.5
		c1.1-0.6,1.8-1.6,2.1-2.8c0.1-0.3,0.1-0.7,0.1-1.1l0-0.1l0.1-0.1c0.5-0.4,1.1-0.7,1.8-0.7l0.1,0l0.1,0.1c1.3,1.1,2.8,1.6,4.5,1.6
		c0.5,0,0.9,0,1.4-0.1l0.1,0l0.1,0c0.4,0.2,0.7,0.4,1,0.6l0.1,0.1l0.1-0.1L24.6,29.9z"/>
	<path class="st0" d="M24.2,32.3c0.1-0.6,0.4-1.2,0.7-1.8l0.1-0.2l-0.1-0.1l-0.2,0.3c-0.3,0.5-0.6,1.1-0.7,1.7
		c-0.2,1.1,0,2.3,0.7,3.2C24.2,34.5,24,33.4,24.2,32.3z"/>
	<path class="st0" d="M6.7,30.3c0.5,1.4,1.6,2.5,3,2.9c0,0,0,0,0,0C8.3,32.7,7.2,31.7,6.7,30.3z"/>
	<path class="st0" d="M33.5,11.1c-0.8-0.1-1.7,0-2.4,0.3c0.6-0.2,1.3-0.3,2-0.2c1.2,0.2,2.2,0.8,2.9,1.7c0.7,0.9,1,2.1,0.9,3.3
		c-0.2,1.2-0.8,2.2-1.7,2.9c-0.9,0.7-2.1,1-3.3,0.9c-0.6-0.1-1.2-0.3-1.7-0.6l-0.4-0.2l-0.3,0.4c-0.4,0.5-0.7,1.2-1,1.9l-0.1,0.1
		l0,0.1c0,0.3,0.1,0.6,0.1,1c0,1.5-0.5,3-1.5,4.2l-0.2,0.2l0.1,0.3c0.2,0.4,0.4,0.8,0.7,1.1l0.2,0.2l0.2,0c0.3,0,0.7,0,1,0.1
		c1.2,0.2,2.2,0.8,2.8,1.8c0.7,1,0.9,2.1,0.7,3.3c-0.2,1.2-0.8,2.2-1.8,2.8c-1,0.7-2.1,0.9-3.3,0.7c-1.2-0.2-2.2-0.8-2.8-1.8
		c0,0,0,0,0,0c0.1,0.1,0.1,0.2,0.2,0.3c0.7,1,1.8,1.7,3,1.9c0.3,0,0.5,0.1,0.8,0.1c0.9,0,1.9-0.3,2.6-0.8c1-0.7,1.7-1.8,1.9-3
		c0.2-1.2-0.1-2.4-0.8-3.5c-0.7-1-1.8-1.7-3-1.9c-0.3-0.1-0.7-0.1-1.1-0.1l-0.1,0l-0.1-0.1c-0.3-0.3-0.5-0.7-0.7-1.1l-0.1-0.1
		l0.1-0.1c1-1.2,1.6-2.8,1.6-4.4c0-0.3,0-0.7-0.1-1l0-0.1l0-0.1c0.3-0.7,0.6-1.3,1-1.9l0.1-0.2l0.2,0.1c0.5,0.3,1.1,0.6,1.8,0.6
		c1.2,0.2,2.4-0.2,3.4-0.9c1-0.7,1.6-1.8,1.8-3.1c0.2-1.2-0.2-2.4-0.9-3.4C35.8,11.9,34.8,11.3,33.5,11.1z"/>
	<path class="st0" d="M37.2,12.5c-0.9-1.1-2.1-1.9-3.6-2.1c-1.4-0.2-2.8,0.2-4,1c-1.1,0.9-1.9,2.1-2.1,3.6c0,0.3-0.1,0.7,0,1
		c-0.3,0.2-0.5,0.4-0.8,0.5c-1.3-0.9-2.8-1.4-4.4-1.4c-0.8,0-1.5,0.1-2.3,0.3c-0.4-0.1-1.1-0.3-1.8-0.6c0.2-0.5,0.3-1.1,0.3-1.7
		c0-3-2.4-5.4-5.4-5.4c-3,0-5.4,2.4-5.4,5.4s2.4,5.4,5.4,5.4c0.3,0,0.7,0,1-0.1c0.5,0.5,0.8,1.1,0.8,1.9c-0.3,0.8-0.4,1.6-0.4,2.4
		c0,0.2,0,0.4,0,0.7c-0.2,0.3-0.4,0.6-0.6,0.8c-0.5-0.3-1-0.5-1.6-0.7c-1.4-0.4-2.8-0.2-4.1,0.6c-1.2,0.7-2.1,1.9-2.5,3.3
		c-0.8,2.9,1,5.8,3.8,6.6c1.4,0.4,2.8,0.4,4.1-0.4c1.2-0.7,2.3-1.8,2.6-3.2c0.1-0.3,0.2-0.9,0.3-1.2c0.3-0.2,0.4-0.3,0.8-0.4
		c1.4,1.1,3.1,1.7,4.8,1.7c0.5,0,0.9,0,1.4-0.1c0.1,0.1,0.3,0.2,0.4,0.2c-0.3,0.5-0.5,1-0.6,1.6c-0.3,1.4,0.1,2.8,0.9,4
		c0.8,1.2,2.1,2,3.5,2.2c0.3,0.1,0.6,0.1,1,0.1c1.1,0,2.2-0.3,3.1-1c1.2-0.8,2-2.1,2.2-3.5c0.3-1.4-0.1-2.8-0.9-4
		c-0.8-1.2-2.1-2-3.5-2.2c-0.3-0.1-0.7-0.1-1-0.1c-0.1-0.1-0.2-0.3-0.3-0.4c1-1.3,1.5-2.9,1.5-4.6c0-0.3,0-0.6-0.1-1
		c0.2-0.4,0.4-0.9,0.6-1.2c0.5,0.3,1.1,0.4,1.6,0.5c1.4,0.2,2.8-0.2,4-1c1.1-0.9,1.9-2.1,2.1-3.6C38.4,15,38.1,13.6,37.2,12.5z
		 M37.9,16.4c-0.2,1.3-0.9,2.5-2,3.4c-1.1,0.8-2.4,1.2-3.8,1c-0.6-0.1-1.1-0.3-1.7-0.5l-0.1-0.1l-0.1,0.1c-0.3,0.4-0.5,0.9-0.7,1.4
		l0,0l0,0c0,0.3,0.1,0.6,0.1,1c0,1.6-0.5,3.2-1.5,4.5l-0.1,0.1l0,0.1c0.1,0.2,0.2,0.4,0.4,0.6l0,0.1l0.1,0c0.3,0,0.7,0,1,0.1
		c1.3,0.2,2.5,1,3.3,2.1c0.8,1.1,1.1,2.5,0.8,3.8c-0.2,1.3-1,2.5-2.1,3.3c-0.9,0.6-1.9,0.9-2.9,0.9c-0.3,0-0.6,0-0.9-0.1
		c-1.3-0.2-2.5-1-3.3-2.1c-0.8-1.1-1.1-2.5-0.8-3.8c0.1-0.6,0.3-1.1,0.6-1.6l0.1-0.1l-0.1-0.1c-0.2-0.1-0.4-0.2-0.6-0.3l0,0l-0.1,0
		c-0.4,0.1-0.9,0.1-1.4,0.1c-1.7,0-3.3-0.6-4.7-1.7l0,0l-0.1,0c-0.4,0.1-0.9,0.2-1.3,0.5l-0.1,0l0,0.1c0,0.3-0.1,0.7-0.2,1
		c-0.3,1.3-1.2,2.4-2.4,3.1c-1.2,0.7-2.5,0.9-3.9,0.5c-1.3-0.3-2.4-1.2-3.1-2.4c-0.7-1.2-0.9-2.5-0.5-3.9c0.3-1.3,1.2-2.4,2.4-3.1
		c1.2-0.7,2.5-0.9,3.9-0.5c0.6,0.1,1.1,0.4,1.6,0.7l0.1,0.1l0.1-0.1c0.2-0.3,0.5-0.6,0.7-1l0,0l0,0c0-0.2,0-0.5,0-0.7
		c0-0.8,0.1-1.6,0.4-2.3l0,0l0,0c0-0.9-0.4-1.7-1-2.2l-0.1,0l-0.1,0c-0.3,0.1-0.7,0.1-1,0.1C10.3,18.2,8,16,8,13.1s2.3-5.1,5.1-5.1
		c2.8,0,5.1,2.3,5.1,5.1c0,0.6-0.1,1.2-0.3,1.7l0,0.1l0.1,0.1c0.7,0.3,1.5,0.5,2,0.7l0,0l0,0c0.7-0.2,1.5-0.3,2.2-0.3
		c1.6,0,3.1,0.5,4.3,1.4l0.1,0l0.1,0c0.4-0.1,0.7-0.3,1.1-0.6l0.1,0l0-0.1c0-0.3,0-0.7,0-1c0.2-1.3,0.9-2.5,2-3.4
		c1.1-0.8,2.4-1.2,3.8-1c1.3,0.2,2.5,0.9,3.4,2C37.8,13.7,38.1,15.1,37.9,16.4z"/>
	<path class="st0" d="M28.2,15c0,0.3-0.1,0.7,0,1l0,0.2L28,16.4c-0.3,0.3-0.7,0.6-1.1,0.8c0.5-0.2,0.9-0.4,1.3-0.8l0.1-0.1l0-0.1
		c0-0.4,0-0.7,0-1.1c0.2-1.7,1.3-3,2.8-3.6C29.6,12,28.4,13.3,28.2,15z"/>
	<path class="st0" d="M11.9,24.4c0.6,0.2,1.1,0.4,1.6,0.8l0.4,0.3l0.2-0.3L14,25.2c-0.5-0.4-1.1-0.7-1.7-0.8c-1-0.3-2-0.2-2.9,0.2
		C10.1,24.2,11,24.2,11.9,24.4z"/>
	<path class="st0" d="M14.3,25.1c0.3-0.4,0.7-0.9,1-1.4l0-0.1l0-0.1c0-0.3,0-0.5,0-0.8c0-0.8,0.1-1.5,0.4-2.3l0,0v0
		c0-0.7-0.2-1.4-0.6-1.9c0.3,0.5,0.4,1.1,0.4,1.8l0,0.1l0,0.1c-0.2,0.7-0.4,1.4-0.4,2.2c0,0.2,0,0.5,0,0.7l0,0.2l-0.1,0.1
		c-0.3,0.6-0.7,1-1.1,1.5l-0.1,0.1l0.1,0.1L14.3,25.1z"/>
	<path class="st0" d="M14.2,17.4L14,17.3l-0.2,0.1c-0.3,0.1-0.7,0.1-1,0.1c-2.4,0-4.4-1.9-4.4-4.3c0,0,0,0,0,0.1
		c0,2.6,2.2,4.6,4.8,4.6c0.4,0,0.7,0,1.1-0.1l0.1,0l0.1,0.1c0.3,0.2,0.6,0.5,0.8,0.8C14.9,18.1,14.6,17.7,14.2,17.4z"/>
	<path class="st0" d="M22.1,11c1.4,0.9,3.2,0.5,4.1-0.9c0.9-1.4,0.5-3.2-0.9-4.1c-0.7-0.4-1.4-0.6-2.2-0.4c0.6-0.1,1.3,0.1,2,0.6
		c1.3,0.8,1.5,2.5,0.7,3.8s-2.3,1.6-3.6,0.8C21,9.9,20.3,8.4,21.1,7c0.2-0.4,0.5-0.7,0.8-0.9c-0.3,0.2-0.5,0.5-0.7,0.8
		C20.3,8.3,20.7,10.1,22.1,11z"/>
	<path class="st0" d="M24.3,6.1c-1.2-0.4-2.5,0.2-2.9,1.4c-0.4,1.2,0.2,2.5,1.4,2.9c0,0,0.1,0,0.1,0c-1-0.4-1.6-1.6-1.2-2.6
		c0.4-1.1,1.6-1.7,2.7-1.3c0.9,0.3,1.5,1.1,1.5,2C26,7.5,25.3,6.4,24.3,6.1z"/>
</g>
</svg>
