<?xml version="1.0" encoding="utf-8"?>
<!-- Generator: Adobe Illustrator 19.0.1, SVG Export Plug-In . SVG Version: 6.00 Build 0)  -->
<svg version="1.1" id="Capa_1" xmlns="http://www.w3.org/2000/svg" xmlns:xlink="http://www.w3.org/1999/xlink" x="0px" y="0px"
	 viewBox="0 0 44 44" style="enable-background:new 0 0 44 44;" xml:space="preserve">
<style type="text/css">
	.st0{fill:#FFFFFF;}
</style>
<g>
	<path class="st0" d="M10.8,16.6c-1.1-0.7-2.3-0.9-3.5-0.7c1-0.1,2,0.2,3.3,1c2,1.3,2.4,4,1.1,6.1C10.4,25,8,25.5,6,24.2
		c-2.1-1.3-3.1-3.7-1.9-5.8c0.3-0.6,0.7-1.1,1.2-1.5c-0.4,0.3-0.8,0.7-1.1,1.2c-1.4,2.2-0.8,5.2,1.5,6.6c2.2,1.4,5.2,0.8,6.6-1.5
		C13.7,21,13,18.1,10.8,16.6z"/>
	<path class="st0" d="M9.2,16.8c-1.9-0.7-4,0.4-4.7,2.3c-0.7,1.9,0.4,4,2.3,4.7c0.1,0,0.1,0,0.2,0c-1.6-0.7-2.5-2.5-1.9-4.2
		c0.6-1.7,2.5-2.7,4.2-2.1c1.4,0.5,2.4,1.8,2.4,3.2C11.9,19.1,10.9,17.4,9.2,16.8z"/>
	<path class="st0" d="M40.2,14.2c-1-3.1-4.4-4.8-7.5-3.8c-2.1,0.7-3.4,2.1-3.8,3.9c0.4-1.6,1.7-3,3.3-3.5c2.7-0.9,5.6,0.6,6.5,3.3
		c0.9,2.7-0.6,5.6-3.3,6.5c-0.5,0.2-1,0.3-1.5,0.3l-0.2,0l-0.1,0.2c-0.8,1.4-1,3.5-1,4.6l0,0.1l0,0.1c0.2,0.7,0.3,1.3,0.3,2
		c0.1,2.3-0.7,4.6-2.3,6.3c-1.6,1.7-3.8,2.8-6.2,2.9c-0.1,0-0.3,0-0.4,0c-4.7,0-8.6-3.7-8.9-8.4c-0.1-1.5,0.3-3,1-4.4
		c0.7-1.3,1.7-2.4,2.9-3.3l0.1-0.1l0-0.1c0.2-0.7,0.1-1.5-0.2-2.2c0.2,0,0.3,0,0.5,0.1c0,0,0.3-0.3,0-0.6c0,0-3.8,0.2-5.3-3.2
		c0,0,0.5,3,4.6,3.7c0.1,0.8,0,1.8-0.1,2.3c-1.3,0.9-2,2.1-2.7,3.5c-0.8,1.5-1.1,3.1-1,4.8c0.2,5.1,4.5,9.1,9.6,9.1
		c0.1,0,0.3,0,0.4,0c2.6-0.1,4.9-1.2,6.7-3.1c1.7-1.9,2.6-4.3,2.5-6.9c0-0.7-0.1-1.4-0.3-2.1c0-1,0.2-2.7,0.8-4c0.5,0,1-0.1,1.5-0.3
		c1.5-0.5,2.7-1.5,3.4-3C40.6,17.3,40.7,15.7,40.2,14.2z"/>
	<path class="st0" d="M24.9,19C24.9,19,24.9,19,24.9,19c-0.2-0.4-0.4-0.8-0.5-1.2c0.9-0.6,1.6-1.4,2-2.3c0.5-1,0.8-2.2,0.8-3.4
		c-0.2-3.6-3.3-6.4-6.9-6.3C18.5,6,16.9,6.7,15.7,8c-1.2,1.3-1.7,2.3-1.6,4c0-1.4,0.6-2.8,1.5-3.8c1.1-1.1,2.5-1.8,4.1-1.9
		c0.1,0,0.2,0,0.3,0c3.1,0,5.7,2.4,5.8,5.5c0.1,2-0.9,4-2.7,5.1l-0.2,0.1l0.1,0.3c0.1,0.6,0.3,1.2,0.7,1.9l0.1,0.2l0.2,0
		c1.8,0,3.5,0.4,5,1.4l0.3,0.2l0.2-0.3c0.3-0.3,0.5-0.8,0.7-1.2l0-0.1c-0.1,0.3-0.3,0.8-0.4,0.9C28.2,19.4,26.6,19,24.9,19z"/>
	<path class="st0" d="M30.2,19.3C30.2,19.3,30.2,19.3,30.2,19.3L30.2,19.3C30.1,19.3,30.2,19.3,30.2,19.3z"/>
	<path class="st0" d="M29.1,17.4c0.2,0.6,0.5,1.1,0.8,1.4c0.1,0.1,0.2,0.2,0.3,0.4c0,0,0,0,0,0.1l0,0c0.2,0.2,0.3,0.4,0.5,0.6
		c0,0,0.4-0.1,0.3-0.4c0,0-1.6-1-2.1-2.8c-0.1-0.6-0.1-1.1,0-1.6c0,0,0-0.1,0-0.1c0,0,0,0,0,0.1c0-0.2,0.1-0.4,0.1-0.5
		c-0.1,0.4-0.2,0.9-0.2,1.3C28.8,16.2,28.8,16.7,29.1,17.4z"/>
</g>
</svg>
