<?xml version="1.0" encoding="utf-8"?>
<!-- Generator: Adobe Illustrator 19.0.1, SVG Export Plug-In . SVG Version: 6.00 Build 0)  -->
<svg version="1.1" id="mainIcon" xmlns="http://www.w3.org/2000/svg" xmlns:xlink="http://www.w3.org/1999/xlink" x="0px" y="0px"
	 viewBox="6 -6.2 48.2 48.2" style="enable-background:new 6 -6.2 48.2 48.2;" xml:space="preserve">
<style type="text/css">
	.st0{opacity:0.4;fill:#606060;}
	.st1{opacity:0.4;fill:none;stroke:#606060;stroke-miterlimit:10;}
</style>
<g>
	<path class="st0" d="M27.5,13.4c0,1.5-1.2,2.7-2.7,2.7h-6.5c-1.5,0-2.7-1.2-2.7-2.7V6.9c0-1.5,1.2-2.7,2.7-2.7h6.5
		c1.5,0,2.7,1.2,2.7,2.7V13.4z"/>
	<path class="st0" d="M42,13.4c0,1.5-1.2,2.7-2.7,2.7h-6.5c-1.5,0-2.7-1.2-2.7-2.7V6.9c0-1.5,1.2-2.7,2.7-2.7h6.5
		c1.5,0,2.7,1.2,2.7,2.7V13.4z"/>
	<path class="st1" d="M27.5,27.8c0,1.5-1.2,2.7-2.7,2.7h-6.5c-1.5,0-2.7-1.2-2.7-2.7v-6.5c0-1.5,1.2-2.7,2.7-2.7h6.5
		c1.5,0,2.7,1.2,2.7,2.7V27.8z"/>
	<path class="st0" d="M42,27.8c0,1.5-1.2,2.7-2.7,2.7h-6.5c-1.5,0-2.7-1.2-2.7-2.7v-6.5c0-1.5,1.2-2.7,2.7-2.7h6.5
		c1.5,0,2.7,1.2,2.7,2.7V27.8z"/>
</g>
</svg>
